<svg xmlns="http://www.w3.org/2000/svg" xmlns:xlink="http://www.w3.org/1999/xlink" width="400" height="250" viewBox="0 0 400 250">
  <defs>
    <clipPath id="clip-path">
      <rect id="Rectángulo_402383" data-name="Rectángulo 402383" width="237.392" height="220.324" fill="none"/>
    </clipPath>
    <clipPath id="clip-path-3">
      <rect id="Rectángulo_402357" data-name="Rectángulo 402357" width="211.549" height="216.865" fill="none"/>
    </clipPath>
    <clipPath id="clip-path-4">
      <rect id="Rectángulo_402358" data-name="Rectángulo 402358" width="17.219" height="42.538" fill="#f8953e"/>
    </clipPath>
    <clipPath id="clip-path-5">
      <rect id="Rectángulo_402359" data-name="Rectángulo 402359" width="6.161" height="28.204" fill="none"/>
    </clipPath>
    <clipPath id="clip-path-6">
      <rect id="Rectángulo_402360" data-name="Rectángulo 402360" width="20.013" height="113.545" fill="none"/>
    </clipPath>
    <clipPath id="clip-path-7">
      <rect id="Rectángulo_402361" data-name="Rectángulo 402361" width="28.425" height="28.162" fill="none"/>
    </clipPath>
    <clipPath id="clip-path-8">
      <rect id="Rectángulo_402362" data-name="Rectángulo 402362" width="16.765" height="20.725" fill="none"/>
    </clipPath>
    <clipPath id="clip-path-9">
      <rect id="Rectángulo_402363" data-name="Rectángulo 402363" width="16.667" height="20.731" fill="none"/>
    </clipPath>
    <clipPath id="clip-path-10">
      <rect id="Rectángulo_402364" data-name="Rectángulo 402364" width="6.514" height="4.836" fill="none"/>
    </clipPath>
    <clipPath id="clip-path-11">
      <rect id="Rectángulo_402365" data-name="Rectángulo 402365" width="6.929" height="4.774" fill="none"/>
    </clipPath>
    <clipPath id="clip-path-12">
      <rect id="Rectángulo_402366" data-name="Rectángulo 402366" width="18.499" height="29.46" fill="none"/>
    </clipPath>
    <clipPath id="clip-path-13">
      <rect id="Rectángulo_402367" data-name="Rectángulo 402367" width="25.277" height="10.518" fill="#36737d"/>
    </clipPath>
    <clipPath id="clip-path-14">
      <rect id="Rectángulo_402368" data-name="Rectángulo 402368" width="58.985" height="84.15" fill="none"/>
    </clipPath>
    <clipPath id="clip-path-15">
      <rect id="Rectángulo_402369" data-name="Rectángulo 402369" width="12.989" height="5.623" fill="#2b5c64"/>
    </clipPath>
    <clipPath id="clip-path-16">
      <rect id="Rectángulo_402370" data-name="Rectángulo 402370" width="12.659" height="5.565" fill="#36737d"/>
    </clipPath>
    <clipPath id="clip-path-17">
      <rect id="Rectángulo_402371" data-name="Rectángulo 402371" width="12.53" height="5.518" fill="#36737d"/>
    </clipPath>
    <clipPath id="clip-path-18">
      <rect id="Rectángulo_402372" data-name="Rectángulo 402372" width="29.528" height="7.603" fill="none"/>
    </clipPath>
    <clipPath id="clip-path-19">
      <rect id="Rectángulo_402373" data-name="Rectángulo 402373" width="7.621" height="9.482" fill="none"/>
    </clipPath>
    <clipPath id="clip-path-20">
      <rect id="Rectángulo_402374" data-name="Rectángulo 402374" width="17.52" height="6.195" fill="none"/>
    </clipPath>
    <clipPath id="clip-path-21">
      <rect id="Rectángulo_402376" data-name="Rectángulo 402376" width="25.768" height="19.513" fill="none"/>
    </clipPath>
    <clipPath id="clip-path-22">
      <rect id="Rectángulo_402381" data-name="Rectángulo 402381" width="19.463" height="14.973" fill="none"/>
    </clipPath>
  </defs>
  <g id="_20" data-name="20" transform="translate(-1020.051 -6509)">
    <rect id="_20-2" data-name="20" width="400" height="250" transform="translate(1020.051 6509)" fill="#fbf3db"/>
    <g id="Grupo_1101696" data-name="Grupo 1101696" transform="translate(1077.608 6518)">
      <g id="Grupo_1101695" data-name="Grupo 1101695" clip-path="url(#clip-path)">
        <g id="Grupo_1101694" data-name="Grupo 1101694">
          <g id="Grupo_1101693" data-name="Grupo 1101693" clip-path="url(#clip-path)">
            <g id="Grupo_1101635" data-name="Grupo 1101635" transform="translate(12.86)" opacity="0.36" style="mix-blend-mode: screen;isolation: isolate">
              <g id="Grupo_1101634" data-name="Grupo 1101634">
                <g id="Grupo_1101633" data-name="Grupo 1101633" clip-path="url(#clip-path-3)">
                  <path id="Trazado_874574" data-name="Trazado 874574" d="M219.893,169.055c.263,14.756,13.9,28.109,10.16,42.384a19.222,19.222,0,0,1-2.37,5.426H45.141c-6.342,0-13.762-17.665-15.814-22.4a82.9,82.9,0,0,1-6.8-29.372c-.6-14.1,3.116-26.512,13.134-36.782,7.05-7.228,15.941-12.661,22.015-20.726A39.908,39.908,0,0,0,65.641,84.5c.213-11.42-4.794-22.172-4.754-33.537A46.971,46.971,0,0,1,72.041,21.387C80.916,10.813,93.857,4.1,107.37,1.279c13.254-2.771,28.485-1.445,38.145,8.042,6.866,6.742,9.821,16.464,11.749,25.892,3.05,14.912,4.95,28.922,17.012,39.636,6.737,5.984,15.076,9.806,23.315,13.456s16.631,7.289,23.6,13,12.464,13.883,12.8,22.888c.619,16.358-14.4,28.571-14.107,44.864" transform="translate(-22.469 0)" fill="#d2e8f9"/>
                </g>
              </g>
            </g>
            <path id="Trazado_874576" data-name="Trazado 874576" d="M282.788,49.411a15.654,15.654,0,0,1-2.706,1.254c.048,2.763.023,5.468-.235,5.835-.147.208-7.563,1.031-7.758.744-.405-.6-.954-3.311-1.418-6a17.754,17.754,0,0,1-2.587-.747c-1.992,2.111-4.076,4.173-4.574,4.117-.517-.057-6.14-4.584-6.012-4.96a44.06,44.06,0,0,1,3.108-4.878,15.5,15.5,0,0,1-1.581-2.9,48.512,48.512,0,0,1-5.736-.146c-.666-.152-1.158-7.625-.744-7.758,1.048-.337,3.265-.8,5.5-1.217a15.143,15.143,0,0,1,.661-2.482q.17-.469.371-.924c-1.868-1.875-3.648-3.668-3.909-3.957-.655-.723,4.543-6.322,4.96-6.012.966.717,2.8,1.958,4.633,3.182a16.016,16.016,0,0,1,2.953-1.591c-.061-2.576-.018-5.111.338-5.8.243-.469,7.684-1.03,7.758-.744.359,1.381.82,3.643,1.238,5.827a16.162,16.162,0,0,1,2.85.979c2.026-2.188,3.9-4.146,4.5-4.177.918-.048,5.2,3.6,6.005,4.955.262.444-1.413,2.776-3.282,5.294a17.33,17.33,0,0,1,1.4,2.442,38.575,38.575,0,0,1,6.09.191c.392.114.966,7.559.743,7.758-.541.485-2.972,1-5.5,1.429,0,.013,0,.026-.005.038a14.85,14.85,0,0,1-.865,3.011,30.86,30.86,0,0,1,3.74,4.1c.217.357-4.314,6.08-4.96,6.012-.882-.094-2.949-1.424-4.984-2.88m.618-15.077a9.637,9.637,0,0,0-16.575-4.94c-3.585,3.974-2.857,10.433,1.141,13.847,4.276,3.651,10.133,2.322,13.3-1.367a9.1,9.1,0,0,0,2.13-7.54" transform="translate(-107.931 -6.137)" fill="#ebc54a"/>
            <path id="Trazado_874577" data-name="Trazado 874577" d="M281.1,42.955a5.851,5.851,0,0,0,.284,7.785,6.629,6.629,0,0,0,5.031,2.17c4.854-.123,6.318-5.874,3.862-9.441a5.227,5.227,0,0,0-3.185-2.18,6.465,6.465,0,0,0-5.993,1.666" transform="translate(-119.63 -17.592)" fill="#ebc54a"/>
            <path id="Trazado_874578" data-name="Trazado 874578" d="M173.416,100.629a8.147,8.147,0,0,1,.613,1.428,13.4,13.4,0,0,1,3.036.208,21.245,21.245,0,0,1,.273,4.052,14.655,14.655,0,0,1-3.145.65,9.168,9.168,0,0,1-.427,1.336,9.767,9.767,0,0,1,2.077,2.443,16.137,16.137,0,0,1-2.672,3.058,22.947,22.947,0,0,1-2.494-1.691,8.06,8.06,0,0,1-1.534.781,25.3,25.3,0,0,1-.16,2.985c-.089.345-3.988.491-4.052.273-.16-.551-.366-1.711-.553-2.884a7.953,7.953,0,0,1-1.283-.381q-.242-.1-.476-.207c-1,.946-1.964,1.846-2.118,1.978-.386.331-3.225-2.458-3.058-2.671.388-.493,1.061-1.427,1.726-2.366a8.345,8.345,0,0,1-.785-1.561,10.557,10.557,0,0,1-3.016-.262,14.378,14.378,0,0,1-.273-4.051c.724-.167,1.909-.374,3.052-.559a8.465,8.465,0,0,1,.552-1.47,9.845,9.845,0,0,1-2.109-2.4c-.011-.479,1.949-2.656,2.669-3.055.235-.131,1.425.777,2.709,1.787a9.024,9.024,0,0,1,1.292-.695,20.136,20.136,0,0,1,.189-3.169,17.088,17.088,0,0,1,4.051-.273,9.473,9.473,0,0,1,.663,2.884l.02,0a7.761,7.761,0,0,1,1.556.495,16.02,16.02,0,0,1,2.191-1.887c.189-.108,3.1,2.336,3.058,2.671a9.146,9.146,0,0,1-1.573,2.553m-7.7.622A3.814,3.814,0,1,0,169.1,107.5a3.761,3.761,0,0,0-.4-5.32,3.629,3.629,0,0,0-2.982-.934" transform="translate(-66.301 -40.143)" fill="#aad6e0"/>
            <path id="Trazado_874579" data-name="Trazado 874579" d="M159.9,222.3q3.252,25.086,6.5,50.172c.425,3.28,1.094,6.97,3.852,8.8,3.813,2.526,8.994-.09,13.464.88,6.771,1.468,9.488,10.309,15.946,12.818,4.854,1.885,10.254-.354,15.461-.37,5.4-.017,10.586,2.422,14.813,5.789s11,11.545,11,11.545H55a25.976,25.976,0,0,1,16.581-10.56c5.361-.943,11.129-.215,16.038-2.568,4.663-2.236,6.241-16.6,12.95-15.829,3.432.393,6.747,1.492,10.162,2.015s7.119.4,10.038-1.444c4.5-2.847,5.763-8.723,6.633-13.974q3.813-23.023,7.626-46.046" transform="translate(-23.519 -95.061)" fill="#abdbe8"/>
            <path id="Trazado_874580" data-name="Trazado 874580" d="M241.219,312.582H112.808c1.085-4.163,5.847-6.833,10.226-7.943,4.917-1.245,10.417-1.72,14.058-5.242,2.4-2.319,3.786-5.81,6.818-7.2,3.114-1.43,7.122-.186,9.963-2.112,2.546-1.725,3.042-5.211,3.3-8.279q.836-9.878,1.663-19.76.721-8.622,1.446-17.245c.434-5.124-.067-11.549,1.477-16.45,2.21-7.009,16.279-5.031,19.476.243,1.25,2.066,1.462,4.581,1.638,6.993q1.712,23.032,3.419,46.074c.315,4.292,1.043,9.276,4.778,11.419,2.593,1.488,5.867,1.085,8.651,2.169,4.865,1.9,6.952,7.659,11.1,10.835,4.8,3.672,11.414,3.321,17.451,3.373,4.467.036,9.426.692,12.953,3.13" transform="translate(-48.241 -95.714)" fill="#d7f0f4"/>
            <path id="Trazado_874581" data-name="Trazado 874581" d="M218.776,223.143c1.059.982,1.085,4.645,1.224,6.007a53.515,53.515,0,0,1,.243,7.419,56.17,56.17,0,0,1-1.089,9.209c-.635,3.1-2.4,9.341-2.757,8.954-.444-.479.177-3.672.277-5.219.136-2.087-.116-4.867-.546-4.964-.369-.083-.978,4.25-1.425,6.3a64.528,64.528,0,0,1-4.328,13.7c-1.031,2.251-1.891,1.095-2.975-.495a42.4,42.4,0,0,1-4.463-8.943c-1.924-5.163-2.241-10.667-2.777-16.1-.3-.1-.524.265-.622.561-.736,2.248-.43,6.667-.994,6.843-.36.112-1.049-7.314-1.012-10.909a62.993,62.993,0,0,1,.91-10.039c.273-1.58.039-2.556,1.692-2.718,1-.1,2.027.217,3.028.217h8.795c1.625,0,5.075-.685,6.566,0a.959.959,0,0,1,.252.172" transform="translate(-84.471 -95.22)" fill="#d22929"/>
            <path id="Trazado_874582" data-name="Trazado 874582" d="M203.678,234.759c1.394-4.007,2.807-5.869,2.51-4.244C203.7,244.082,209.652,256,210.431,256c1.956,0,4.9-22.513,6.4-22.487,1.938.033,1.1,5.451,1.6,5.59.9.246,1.4-12.149-.048-18.047-.227-.924-6.518-.891-7.36-.864-1.845.06-4.638-.045-5.773,1.521-2.559,3.533-2.963,17.032-1.576,13.047" transform="translate(-86.764 -94.157)" fill="#fcd4b2"/>
            <path id="Trazado_874583" data-name="Trazado 874583" d="M186.321,174.429a21.013,21.013,0,0,0-6.694-.036c-.976.2-.737.151-1.02.928-1.047,2.87-1.439,6.145-2.125,9.125l-2.373,10.316c-1.6,7.2-5.337,21.326-4.974,21.577a11.128,11.128,0,0,0,3.147,0c1.472-.381,2.283-3.477,2.988-4.9,1.413-2.826,2.81-5.66,4.215-8.49l2.168-4.367c.492-.991,1.019-3,1.9-3.7a1.054,1.054,0,0,1,.484-.167c1.379-.242,2.127-.218,2.309-1.549a15.855,15.855,0,0,0,0-2.131q-.01-3.212-.027-6.424a94.334,94.334,0,0,1,.064-10.178l-.064-.009" transform="translate(-72.317 -74.467)" fill="#f8953e"/>
            <path id="Trazado_874584" data-name="Trazado 874584" d="M236.912,174.283c1.728-.244,5.971-1.059,7.454.189.682.574.8,2.741,1.011,3.6q.533,2.191,1.052,4.385c1.817,7.686,3.518,15.391,5.337,23.072.455,1.853.906,3.708,1.339,5.567.314,1.347,1.205,4.992.888,5.065a7.576,7.576,0,0,1-3.042.035c-1.472-.381-2.283-3.477-2.988-4.9-2.326-4.683-4.782-9.309-6.841-14.119a6.782,6.782,0,0,0-1.136-2.006c-1.005-1.085-2.861-.375-3.1-2.145a15.757,15.757,0,0,1,0-2.131q.009-3.212.026-6.424a94.181,94.181,0,0,0-.064-10.178l.064-.009" transform="translate(-101.281 -74.321)" fill="#ef290f"/>
            <g id="Grupo_1101638" data-name="Grupo 1101638" transform="translate(135.56 99.474)" opacity="0.36" style="mix-blend-mode: multiply;isolation: isolate">
              <g id="Grupo_1101637" data-name="Grupo 1101637">
                <g id="Grupo_1101636" data-name="Grupo 1101636" clip-path="url(#clip-path-4)">
                  <path id="Trazado_874585" data-name="Trazado 874585" d="M236.912,174.283c1.728-.244,5.971-1.059,7.454.189.682.574.8,2.741,1.011,3.6q.533,2.191,1.052,4.385c1.817,7.686,3.518,15.391,5.337,23.072.455,1.853.906,3.708,1.339,5.567.314,1.347,1.205,4.992.888,5.065a7.576,7.576,0,0,1-3.042.035c-1.472-.381-2.283-3.477-2.988-4.9-2.326-4.683-4.782-9.309-6.841-14.119a6.782,6.782,0,0,0-1.136-2.006c-1.005-1.085-2.861-.375-3.1-2.145a15.757,15.757,0,0,1,0-2.131q.009-3.212.026-6.424a94.181,94.181,0,0,0-.064-10.178l.064-.009" transform="translate(-236.842 -173.795)" fill="#f8953e"/>
                </g>
              </g>
            </g>
            <path id="Trazado_874586" data-name="Trazado 874586" d="M208.087,30.8l-.212.212v-.006c.069-.069.143-.143.212-.206" transform="translate(-88.894 -13.172)" fill="#1994b3"/>
            <path id="Trazado_874587" data-name="Trazado 874587" d="M222.5,101.249q-1.391,19.549-2.793,39.1c-.177,2.518-1.631,16.667-2.3,16.622-7.544-.532-17.463.275-25.018.321a3.255,3.255,0,0,1-2.255-.549,3.221,3.221,0,0,1-.778-2.181c-1.179-12.346-2.095-24.715-3.011-37.078-1.15-15.54-3.692-32.012-.286-47.587a40.494,40.494,0,0,0,11.894,3.526,43.263,43.263,0,0,0,11.945-.052,28.5,28.5,0,0,0,11.819-4.178c2.364,10.165,1.58,20.92.784,32.058" transform="translate(-78.834 -29.588)" fill="#1994b3"/>
            <g id="Grupo_1101641" data-name="Grupo 1101641" transform="translate(124.832 100.429)" opacity="0.36" style="mix-blend-mode: multiply;isolation: isolate">
              <g id="Grupo_1101640" data-name="Grupo 1101640">
                <g id="Grupo_1101639" data-name="Grupo 1101639" clip-path="url(#clip-path-5)">
                  <path id="Trazado_874588" data-name="Trazado 874588" d="M223.9,181.27l.357,20.286a2.4,2.4,0,0,1-.274,1.428,2.431,2.431,0,0,1-2.108.682,2.838,2.838,0,0,1-2.4-.805,2.738,2.738,0,0,1-.374-1.143,74.071,74.071,0,0,1-.338-22.026c.2-1.508.272-4.207,2.265-4.23a3.054,3.054,0,0,1,2.937,1.6c.492,1.3-.08,3.314-.064,4.209" transform="translate(-218.099 -175.462)" fill="#1994b3"/>
                </g>
              </g>
            </g>
            <g id="Grupo_1101644" data-name="Grupo 1101644" transform="translate(124.448 13.839)" opacity="0.36" style="mix-blend-mode: multiply;isolation: isolate">
              <g id="Grupo_1101643" data-name="Grupo 1101643">
                <g id="Grupo_1101642" data-name="Grupo 1101642" clip-path="url(#clip-path-6)">
                  <path id="Trazado_874589" data-name="Trazado 874589" d="M236.648,82q-1.391,19.549-2.793,39.1c-.177,2.518-1.631,16.667-2.3,16.621-1.3-.092-2.662-.143-4.075-.166a31.46,31.46,0,0,1,.166-6.68c1.8-18.447,3.079-37.021,1.837-55.514a175.6,175.6,0,0,0-2.77-21.727c-.366-1.923-.773-3.829-1.219-5.735a137.432,137.432,0,0,0-3.812-13.313c-1.179-3.44-3.016-6.851-4.253-10.3a3.717,3.717,0,0,1,3.612,1.128,51.677,51.677,0,0,1,9.45,11.035,39.6,39.6,0,0,1,3.325,6.714c.252.652,2.518,6.451,2.049,6.771a26.061,26.061,0,0,1-8.7,3.6,25.932,25.932,0,0,0,8.7-3.594c2.364,10.165,1.58,20.92.784,32.058" transform="translate(-217.428 -24.178)" fill="#1994b3"/>
                </g>
              </g>
            </g>
            <path id="Trazado_874590" data-name="Trazado 874590" d="M234.466,37.667c.487.635.944,1.276,1.379,1.923-.441-.647-.9-1.288-1.385-1.923s-.984-1.253-1.505-1.866c.527.612,1.03,1.236,1.511,1.866" transform="translate(-99.619 -15.31)" fill="#ef290f"/>
            <g id="Grupo_1101647" data-name="Grupo 1101647" transform="translate(112.005 55.181)" opacity="0.36" style="mix-blend-mode: multiply;isolation: isolate">
              <g id="Grupo_1101646" data-name="Grupo 1101646">
                <g id="Grupo_1101645" data-name="Grupo 1101645" clip-path="url(#clip-path-7)">
                  <path id="Trazado_874591" data-name="Trazado 874591" d="M223.562,106.338a14.258,14.258,0,1,1-27.182-.476c4.315-12.846,23.319-12.514,27.182.476" transform="translate(-195.687 -96.409)" fill="#1994b3"/>
                </g>
              </g>
            </g>
            <path id="Trazado_874592" data-name="Trazado 874592" d="M221.562,104.338a14.258,14.258,0,1,1-27.182-.476c4.315-12.846,23.319-12.514,27.182.476" transform="translate(-82.827 -40.372)" fill="#abdbe8"/>
            <path id="Trazado_874593" data-name="Trazado 874593" d="M199.227,104.389c-2.527,4.957-1.868,11.591,2.773,15.187.041.032.082.064.125.1,3.895,2.909,10.754,2.672,14.74.061a10.227,10.227,0,0,0,3.968-5.186c2.4-6.894-2.4-16.1-10.012-16.824a12.038,12.038,0,0,0-11.594,6.667" transform="translate(-84.573 -41.768)" fill="#d7f0f4"/>
            <g id="Grupo_1101650" data-name="Grupo 1101650" transform="translate(115.119 56.937)" opacity="0.36" style="mix-blend-mode: screen;isolation: isolate">
              <g id="Grupo_1101649" data-name="Grupo 1101649">
                <g id="Grupo_1101648" data-name="Grupo 1101648" clip-path="url(#clip-path-8)">
                  <path id="Trazado_874594" data-name="Trazado 874594" d="M217.892,100.861a79.11,79.11,0,0,1-14.63,19.34,10.268,10.268,0,0,1-2.134-2.33q1.184-1.554,2.375-3.091,3.71-4.782,7.516-9.484,1.888-2.327,3.806-4.636c.252-.3.555-.8.9-1.185a10.9,10.9,0,0,1,2.169,1.385" transform="translate(-201.128 -99.476)" fill="#d7f0f4"/>
                </g>
              </g>
            </g>
            <g id="Grupo_1101653" data-name="Grupo 1101653" transform="translate(118.856 59.175)" opacity="0.36" style="mix-blend-mode: screen;isolation: isolate">
              <g id="Grupo_1101652" data-name="Grupo 1101652">
                <g id="Grupo_1101651" data-name="Grupo 1101651" clip-path="url(#clip-path-9)">
                  <path id="Trazado_874595" data-name="Trazado 874595" d="M224.325,107.255c-.1.16-.217.315-.326.464q-6.1,8.2-12.186,16.4a12.389,12.389,0,0,1-4.155-1.2c1.058-1.557,2.884-4,3.125-4.344q3.564-5.134,7.224-10.205,1.8-2.5,3.622-4.985a13.65,13.65,0,0,1,2.7,3.869" transform="translate(-207.658 -103.386)" fill="#d7f0f4"/>
                </g>
              </g>
            </g>
            <path id="Trazado_874596" data-name="Trazado 874596" d="M218.659,95.149a.553.553,0,0,0-.078.525.6.6,0,0,0,.4.357.519.519,0,0,0,.387-.041.5.5,0,0,0,.228-.305.69.69,0,0,0-.016-.385.579.579,0,0,0-.155-.254.489.489,0,0,0-.391-.092.519.519,0,0,0-.372.194" transform="translate(-93.458 -40.604)" fill="#1994b3"/>
            <path id="Trazado_874597" data-name="Trazado 874597" d="M218.542,141.456a.552.552,0,0,0,.155.508.6.6,0,0,0,.512.153.518.518,0,0,0,.333-.2.5.5,0,0,0,.074-.373.681.681,0,0,0-.179-.341.577.577,0,0,0-.249-.163.488.488,0,0,0-.393.085.521.521,0,0,0-.253.335" transform="translate(-93.451 -60.306)" fill="#1994b3"/>
            <path id="Trazado_874598" data-name="Trazado 874598" d="M240.967,117.619a.553.553,0,0,0-.473.242.594.594,0,0,0-.06.531.513.513,0,0,0,.258.292.5.5,0,0,0,.38.008.683.683,0,0,0,.3-.236.587.587,0,0,0,.117-.274.492.492,0,0,0-.152-.371.522.522,0,0,0-.374-.191" transform="translate(-102.802 -50.297)" fill="#1994b3"/>
            <path id="Trazado_874599" data-name="Trazado 874599" d="M195.819,117.869a.539.539,0,0,0-.481-.194.582.582,0,0,0-.43.3.505.505,0,0,0-.05.377.491.491,0,0,0,.238.286.664.664,0,0,0,.369.072.562.562,0,0,0,.277-.088.479.479,0,0,0,.176-.351.507.507,0,0,0-.1-.4" transform="translate(-83.32 -50.32)" fill="#1994b3"/>
            <path id="Trazado_874600" data-name="Trazado 874600" d="M233.283,101.19a.7.7,0,0,0-.54.4.752.752,0,0,0,.036.675.655.655,0,0,0,.383.31.636.636,0,0,0,.477-.07.858.858,0,0,0,.33-.359.732.732,0,0,0,.089-.366.622.622,0,0,0-.268-.432.659.659,0,0,0-.507-.16" transform="translate(-99.502 -43.27)" fill="#1994b3"/>
            <path id="Trazado_874601" data-name="Trazado 874601" d="M200.565,133.056a.553.553,0,0,0-.25.469.6.6,0,0,0,.254.47.519.519,0,0,0,.379.091.5.5,0,0,0,.316-.211.679.679,0,0,0,.114-.367.58.58,0,0,0-.061-.291.491.491,0,0,0-.338-.217.521.521,0,0,0-.416.058" transform="translate(-85.661 -56.866)" fill="#1994b3"/>
            <path id="Trazado_874602" data-name="Trazado 874602" d="M234.835,134.226a.552.552,0,0,0-.5-.164.6.6,0,0,0-.418.333.518.518,0,0,0-.023.389.5.5,0,0,0,.263.275.683.683,0,0,0,.382.048.579.579,0,0,0,.276-.111.491.491,0,0,0,.155-.37.52.52,0,0,0-.13-.4" transform="translate(-100.007 -57.326)" fill="#1994b3"/>
            <path id="Trazado_874603" data-name="Trazado 874603" d="M202.31,103.024a.552.552,0,0,0-.208-.489.6.6,0,0,0-.525-.1.519.519,0,0,0-.309.238.5.5,0,0,0-.034.379.685.685,0,0,0,.214.32.576.576,0,0,0,.265.136.49.49,0,0,0,.381-.126.52.52,0,0,0,.216-.36" transform="translate(-86.045 -43.796)" fill="#1994b3"/>
            <path id="Trazado_874604" data-name="Trazado 874604" d="M221.795,222.882a26.01,26.01,0,0,1-3.18.185H194.7c-.923,0-1.847.006-2.77,0-.29,0-1.176.106-1.24-.117-.395-1.361-.342-4.583.125-4.633,1.137-.121,4.685-.088,6.9-.092q3.784-.009,7.568,0c5.437.011,10.864.19,16.3.07,1-.022.767,3.913.214,4.588" transform="translate(-81.431 -93.319)" fill="#0a2c4a"/>
            <g id="Grupo_1101656" data-name="Grupo 1101656" transform="translate(125.021 124.911)" opacity="0.36" style="mix-blend-mode: multiply;isolation: isolate">
              <g id="Grupo_1101655" data-name="Grupo 1101655">
                <g id="Grupo_1101654" data-name="Grupo 1101654" clip-path="url(#clip-path-10)">
                  <path id="Trazado_874605" data-name="Trazado 874605" d="M218.428,218.236c2.175.011,4.344.046,6.514.069v4.768h-6.514Z" transform="translate(-218.428 -218.236)" fill="#0a2c4a"/>
                </g>
              </g>
            </g>
            <g id="Grupo_1101659" data-name="Grupo 1101659" transform="translate(133.91 124.974)" opacity="0.36" style="mix-blend-mode: multiply;isolation: isolate">
              <g id="Grupo_1101658" data-name="Grupo 1101658">
                <g id="Grupo_1101657" data-name="Grupo 1101657" clip-path="url(#clip-path-11)">
                  <path id="Trazado_874606" data-name="Trazado 874606" d="M240.414,222.936a26.153,26.153,0,0,1-3.182.183h-3.274v-4.745c2.083.017,4.161.017,6.238-.029,1-.017.768,3.915.218,4.59" transform="translate(-233.958 -218.346)" fill="#0a2c4a"/>
                </g>
              </g>
            </g>
            <path id="Trazado_874607" data-name="Trazado 874607" d="M218.78,216.258c-.567.422-5.226.432-5.226-.541,0-13.081-.143-26.172.078-39.249.04-2.065.64-1.912,2.547-1.856.56.016,2.547-.139,2.884.476a4.3,4.3,0,0,1,.006,1.422v4.411q0,11.953,0,23.9,0,2.988,0,5.976c0,1.041-.235,5.423-.282,5.458" transform="translate(-91.304 -74.658)" fill="#f8953e"/>
            <path id="Trazado_874608" data-name="Trazado 874608" d="M222.991,49.938a28.488,28.488,0,0,1-11.817,4.179,43.26,43.26,0,0,1-11.945.053,40.542,40.542,0,0,1-11.9-3.524q.119-.548.251-1.1a44.51,44.51,0,0,1,11.509-21.373,15.75,15.75,0,0,1,4.629-3.606,3.738,3.738,0,0,1,4.45.844,51.718,51.718,0,0,1,9.45,11.034,39.8,39.8,0,0,1,3.321,6.714c.251.652,2.518,6.456,2.048,6.774" transform="translate(-80.11 -10.339)" fill="#f8953e"/>
            <g id="Grupo_1101662" data-name="Grupo 1101662" transform="translate(124.448 13.838)" opacity="0.36" style="mix-blend-mode: multiply;isolation: isolate">
              <g id="Grupo_1101661" data-name="Grupo 1101661">
                <g id="Grupo_1101660" data-name="Grupo 1101660" clip-path="url(#clip-path-12)">
                  <path id="Trazado_874609" data-name="Trazado 874609" d="M235.863,49.938c-.206.137-.412.269-.618.4a.073.073,0,0,1-.039.023c-.017.011-.041.023-.058.034-.189.114-.378.229-.567.332a20.628,20.628,0,0,1-1.877.962c-.149.069-.3.137-.452.2-.183.086-.372.16-.56.235-.241.1-.487.195-.739.286-.309.12-.618.223-.927.332-.189.057-.378.12-.567.177h-.005c-.184.063-.373.12-.561.172a1.406,1.406,0,0,1-.195.052c-.258.074-.509.143-.767.206l-.766.189c-.149.034-.3.063-.453.1-.366-1.923-.772-3.829-1.219-5.735a137.6,137.6,0,0,0-3.813-13.313c-1.179-3.44-3.016-6.851-4.253-10.3l.229-.052.223-.034a3.817,3.817,0,0,1,3.16,1.213,51.676,51.676,0,0,1,9.449,11.035,39.562,39.562,0,0,1,3.325,6.714c.252.652,2.519,6.451,2.049,6.771" transform="translate(-217.428 -24.176)" fill="#ef290f"/>
                </g>
              </g>
            </g>
            <path id="Trazado_874610" data-name="Trazado 874610" d="M38.227,360.712a.625.625,0,0,0-.074.1c-.215.332.137,1.506.222,1.871a9.525,9.525,0,0,0,1.681,3.556c3.482,4.617,10.2,5.78,15.493,4.021,4.152-1.381,7.813-5.065,7.813-9.64H41.03a8.974,8.974,0,0,0-2.424,0c-.193.066-.265-.02-.379.1" transform="translate(-16.286 -154.17)" fill="#13447d"/>
            <g id="Grupo_1101665" data-name="Grupo 1101665" transform="translate(21.799 206.349)" style="mix-blend-mode: multiply;isolation: isolate">
              <g id="Grupo_1101664" data-name="Grupo 1101664">
                <g id="Grupo_1101663" data-name="Grupo 1101663" clip-path="url(#clip-path-13)">
                  <path id="Trazado_874611" data-name="Trazado 874611" d="M38.227,360.712a.625.625,0,0,0-.074.1c-.215.332.137,1.506.222,1.871a9.525,9.525,0,0,0,1.681,3.556c3.482,4.617,10.2,5.78,15.493,4.021,4.152-1.381,7.813-5.065,7.813-9.64H41.03a8.974,8.974,0,0,0-2.424,0c-.193.066-.265-.02-.379.1" transform="translate(-38.085 -360.519)" fill="#36737d"/>
                </g>
              </g>
            </g>
            <path id="Trazado_874612" data-name="Trazado 874612" d="M68.932,243.679a33.059,33.059,0,0,0-1.031-8.671c-5.516-21.355-30.833-32.182-50.12-21.487A35.188,35.188,0,0,0,.053,241.739,35.367,35.367,0,0,0,10.328,268.32c1.909,1.9,5.969,3.589,7.03,6.051,1.177,2.733.531,5.911.378,8.778-.205,3.833-.281,7.678-.422,11.514a3.2,3.2,0,0,0,.254,1.713c.994,1.752,6.716.5,8.444.511q5.582.038,11.166.055c.9,0,14.415.159,14.421-.216q-.071-9.236-.142-18.474c-.029-3.72,1.486-5.671,4.237-7.907a33.352,33.352,0,0,0,8.361-9.168,35.631,35.631,0,0,0,4.879-17.5" transform="translate(0 -89.524)" fill="#ebc54a"/>
            <g id="Grupo_1101668" data-name="Grupo 1101668" transform="translate(9.952 123.635)" opacity="0.36" style="mix-blend-mode: multiply;isolation: isolate">
              <g id="Grupo_1101667" data-name="Grupo 1101667">
                <g id="Grupo_1101666" data-name="Grupo 1101666" clip-path="url(#clip-path-14)">
                  <path id="Trazado_874613" data-name="Trazado 874613" d="M76.37,246.525a35.581,35.581,0,0,1-4.882,17.5,33.4,33.4,0,0,1-8.357,9.169c-2.754,2.238-4.27,4.19-4.242,7.91q.078,9.229.143,18.47c-.006.378-13.519.217-14.424.217q-5.581-.017-11.161-.057c-1.729-.011-7.453,1.242-8.448-.509a3.209,3.209,0,0,1-.252-1.711c.143-3.835.218-7.681.424-11.516.154-2.868.8-6.044-.378-8.774-1.065-2.467-5.122-4.15-7.028-6.056-.132-.126-.258-.258-.378-.389.018-.08.04-.165.062-.244-.511,1.8,11.072,3.405,12.312,3.358,15.632-.6,36.294-10.688,36.58-28.533.163-10.144-1.81-21.7-8.94-29.35a34.018,34.018,0,0,1,17.937,21.847,33.354,33.354,0,0,1,1.031,8.671" transform="translate(-17.387 -216.006)" fill="#fddd50"/>
                </g>
              </g>
            </g>
            <path id="Trazado_874614" data-name="Trazado 874614" d="M65.063,338.834a8.516,8.516,0,0,1-2.533.2c-1.629.051-3.26.057-4.89.058-3.4,0-6.825.078-10.218-.089-7.134-.351-14.388.021-21.539.062-1.588.009-.944-1.741-.944-2.805,0-.446-.209-2.765.328-2.765,11.655,0,23.313.08,34.966-.006q1.739-.013,3.478.019c1.283.023,1.437.078,1.434,1.336,0,1.308.014,2.616,0,3.925,0,.021-.027.041-.078.06" transform="translate(-10.609 -142.612)" fill="#2b5c64"/>
            <path id="Trazado_874615" data-name="Trazado 874615" d="M64.913,350.565a1.319,1.319,0,0,1-.86.223q-17.38.011-34.758.05l-2.114.006c-.5,0-1.5.207-1.942-.034-.7-.379-.385-1.525-.343-2.151.005-.075.011-.15.011-.225q.01-1.124.068-2.247c.073-1.426,1.85-.99,2.807-.979q2.208.025,4.416.045,4.416.04,8.831.06c5.888.026,11.776-.006,17.664-.035l4.416-.021c.925,0,1.762-.241,2.069.866a8.4,8.4,0,0,1,.007,3.986.855.855,0,0,1-.271.455" transform="translate(-10.601 -147.593)" fill="#36737d"/>
            <path id="Trazado_874616" data-name="Trazado 874616" d="M64.8,362.329c-.5.493-13.314.384-18.906.384q-8.81.019-17.62.093l-1.938.019c-.8.009-1.32-.115-1.335-.974-.021-1.225-.08-2.452-.08-3.676a1.056,1.056,0,0,1,.169-.786.944.944,0,0,1,.5-.239,9.4,9.4,0,0,1,2.753.013c1.71.1,3.414.062,5.126.062H50.409c4.7,0,9.4.058,14.094-.019.536-.009.777.157.766.725a24.329,24.329,0,0,1,.031,3.312,1.891,1.891,0,0,1-.5,1.086" transform="translate(-10.653 -152.684)" fill="#36737d"/>
            <g id="Grupo_1101671" data-name="Grupo 1101671" transform="translate(41.552 190.88)" opacity="0.36" style="mix-blend-mode: multiply;isolation: isolate">
              <g id="Grupo_1101670" data-name="Grupo 1101670">
                <g id="Grupo_1101669" data-name="Grupo 1101669" clip-path="url(#clip-path-15)">
                  <path id="Trazado_874617" data-name="Trazado 874617" d="M85.578,338.772c0,.023-.029.046-.08.063a8.7,8.7,0,0,1-2.53.206c-1.631.052-3.262.057-4.894.057s-3.285.017-4.933.017c-.109-1.837-.252-3.675-.527-5.478-.006-.04-.011-.074-.017-.109q4.036-.009,8.07-.034c1.162-.006,2.318,0,3.48.017,1.282.029,1.437.08,1.431,1.339,0,1.3.017,2.616,0,3.921" transform="translate(-72.597 -333.492)" fill="#2b5c64"/>
                </g>
              </g>
            </g>
            <g id="Grupo_1101674" data-name="Grupo 1101674" transform="translate(42.159 197.64)" opacity="0.36" style="mix-blend-mode: multiply;isolation: isolate">
              <g id="Grupo_1101673" data-name="Grupo 1101673">
                <g id="Grupo_1101672" data-name="Grupo 1101672" clip-path="url(#clip-path-16)">
                  <path id="Trazado_874618" data-name="Trazado 874618" d="M86.084,350.181a.849.849,0,0,1-.275.452,1.311,1.311,0,0,1-.859.223q-5.537.009-11.081.011c-.022-1.385-.074-2.77-.143-4.15l-.068-1.339c1.974-.006,3.954-.017,5.93-.029q2.215-.017,4.419-.023c.927-.006,1.762-.24,2.066.864a8.469,8.469,0,0,1,.011,3.989" transform="translate(-73.658 -345.303)" fill="#36737d"/>
                </g>
              </g>
            </g>
            <g id="Grupo_1101677" data-name="Grupo 1101677" transform="translate(42.182 204.521)" opacity="0.36" style="mix-blend-mode: multiply;isolation: isolate">
              <g id="Grupo_1101676" data-name="Grupo 1101676">
                <g id="Grupo_1101675" data-name="Grupo 1101675" clip-path="url(#clip-path-17)">
                  <path id="Trazado_874619" data-name="Trazado 874619" d="M86.164,361.361a1.883,1.883,0,0,1-.5,1.087c-.338.338-6.382.395-11.962.395a10.88,10.88,0,0,0,.183-1.975c.023-1.173.034-2.347.023-3.52,3.823.011,7.641.04,11.458-.023.539-.011.779.16.768.727a24.547,24.547,0,0,1,.034,3.308" transform="translate(-73.698 -357.325)" fill="#36737d"/>
                </g>
              </g>
            </g>
            <path id="Trazado_874620" data-name="Trazado 874620" d="M109.572,362.184l.018.025a.458.458,0,0,1,.041.25c-.073,2.81-.092,5.622-.193,8.432a1.9,1.9,0,0,1-.026.614c-.172.319-6.792.145-8.572.145H92.505a7.57,7.57,0,0,1,.144-1.472,2.916,2.916,0,0,1,.836-1.643A3.011,3.011,0,0,1,95,367.909a33.837,33.837,0,0,0,4.642-.984,5.327,5.327,0,0,0,2.562-1.563,6.671,6.671,0,0,0,1.087-3.169.154.154,0,0,1,.042-.092.159.159,0,0,1,.1-.023c1.909.027,3.819,0,5.728-.017a.5.5,0,0,1,.4.122" transform="translate(-39.55 -154.83)" fill="#000021"/>
            <path id="Trazado_874621" data-name="Trazado 874621" d="M144.4,362.184l-.018.025a.458.458,0,0,0-.041.25c.073,2.81.092,5.622.193,8.432a1.9,1.9,0,0,0,.026.614c.172.319,10.611.145,10.711.145a7.526,7.526,0,0,0-.144-1.472,2.912,2.912,0,0,0-.836-1.643,3.011,3.011,0,0,0-1.516-.625c-1.554-.256-1.85-4.577-2.1-5.716a.151.151,0,0,0-.043-.092.157.157,0,0,0-.1-.023c-1.909.027-3.819,0-5.728-.017a.5.5,0,0,0-.4.122" transform="translate(-61.727 -154.83)" fill="#000021"/>
            <path id="Trazado_874622" data-name="Trazado 874622" d="M108.482,212.984l.362,88h7.667l5.591-61.059,6.263,61.059h7.661l1.761-88Z" transform="translate(-46.391 -91.079)" fill="#0a2c4a"/>
            <path id="Trazado_874623" data-name="Trazado 874623" d="M135.222,179.374c.42-.72-.367-10.16-.27-15.2.012-.631.006-1.27.068-1.9.038-.62-.013-.721.934-1.46,1.455-1.136,2.281-4.524,2.627-7.632.4-3.657-.05-20.61-.624-21.475-.893-1.347-4.525-2.625-5.967-3.127a23.67,23.67,0,0,0-6.784-1.544,37.162,37.162,0,0,0-9.948,0,73.558,73.558,0,0,0-9.32,2.153c-1.418.432-3.226.943-3.887,2.426a118.989,118.989,0,0,0-.844,17.7,70.9,70.9,0,0,0,1.714,10.558,2.765,2.765,0,0,0,2.575,1.93c.179.018-.286,14.283-.693,17.585-.035.286,10.74,1.075,11.611,1.108a80.993,80.993,0,0,0,9.4-.279c1.606-.129,3.21-.286,4.814-.446.829-.083,4.5-.233,4.6-.394" transform="translate(-43.248 -54.182)" fill="#1994b3"/>
            <g id="Grupo_1101680" data-name="Grupo 1101680" transform="translate(62.244 101.839)" opacity="0.36" style="mix-blend-mode: multiply;isolation: isolate">
              <g id="Grupo_1101679" data-name="Grupo 1101679">
                <g id="Grupo_1101678" data-name="Grupo 1101678" clip-path="url(#clip-path-18)">
                  <path id="Trazado_874624" data-name="Trazado 874624" d="M138.275,184.182l-.034,1.059a3.809,3.809,0,0,1-1.608-.006,9.566,9.566,0,0,1-2.37-.967q-3.726-1.915-7.452-3.841a4.51,4.51,0,0,0-4.928-.28q-4.593,1.915-9.2,3.835c-.756.315-2.925,1.66-3.921,1.54l-.017-1.814a163.5,163.5,0,0,0,15.986-5.781Z" transform="translate(-108.748 -177.926)" fill="#1994b3"/>
                </g>
              </g>
            </g>
            <path id="Trazado_874625" data-name="Trazado 874625" d="M125.451,177.926a146.12,146.12,0,0,1-15.029,5.438" transform="translate(-47.22 -76.087)" fill="none" stroke="#e6f2f4" stroke-linecap="round" stroke-linejoin="round" stroke-width="0.5"/>
            <path id="Trazado_874626" data-name="Trazado 874626" d="M126.34,117.142l-.533,5.807s.236,5.924,4.974,5.924c4,0,4.974-5.924,4.974-5.924l-.311-5.807Z" transform="translate(-53.799 -50.094)" fill="#ffb48c"/>
            <path id="Trazado_874627" data-name="Trazado 874627" d="M126.514,117.142l-.3,4.556a5.482,5.482,0,0,0,4.954,2.785,5.305,5.305,0,0,0,4.629-2.717l-.177-4.624Z" transform="translate(-53.973 -50.094)" fill="#f2854c"/>
            <path id="Trazado_874628" data-name="Trazado 874628" d="M136.634,99.433c0,6.157-3.149,12.855-8.446,12.855s-8.446-6.7-8.446-12.855,3.149-5.319,8.446-5.319,8.446-.838,8.446,5.319" transform="translate(-51.206 -40.23)" fill="#ffb48c"/>
            <path id="Trazado_874629" data-name="Trazado 874629" d="M129.35,105.986a.671.671,0,1,1-.645-.854.772.772,0,0,1,.645.854" transform="translate(-54.762 -44.958)" fill="#0c0b0b"/>
            <path id="Trazado_874630" data-name="Trazado 874630" d="M128.957,102.585a2.571,2.571,0,0,0-1.882.219" transform="translate(-54.342 -43.831)" fill="none" stroke="#1e100a" stroke-linecap="round" stroke-linejoin="round" stroke-width="0.684"/>
            <path id="Trazado_874631" data-name="Trazado 874631" d="M138.682,105.986a.671.671,0,1,0,.645-.854.772.772,0,0,0-.645.854" transform="translate(-59.305 -44.958)" fill="#0c0b0b"/>
            <path id="Trazado_874632" data-name="Trazado 874632" d="M138.632,102.585a2.571,2.571,0,0,1,1.882.219" transform="translate(-59.284 -43.831)" fill="none" stroke="#1e100a" stroke-linecap="round" stroke-linejoin="round" stroke-width="0.684"/>
            <path id="Trazado_874633" data-name="Trazado 874633" d="M134.112,107.177a8.227,8.227,0,0,0,.847,3.014,1.435,1.435,0,0,1,.244.963.8.8,0,0,1-.607.544,1.327,1.327,0,0,1-.834-.118" transform="translate(-57.201 -45.833)" fill="none" stroke="#1e100a" stroke-linecap="round" stroke-linejoin="round" stroke-width="0.684"/>
            <path id="Trazado_874634" data-name="Trazado 874634" d="M135.7,117.685c.256,0-1.047,1.5-2.8,1.5a3.044,3.044,0,0,1-2.789-1.382c-.14-.236,1.141.394,2.809.337a19.192,19.192,0,0,0,2.776-.451" transform="translate(-55.636 -50.326)" fill="#fff"/>
            <path id="Trazado_874635" data-name="Trazado 874635" d="M119.924,97.453c-.131.771.191,1.528-.111,2.3-.193.5-.79.193-1.057-.268-1.311-2.273-1.023-9.717-.439-10.652a2.954,2.954,0,0,1,3.165-1.272c1.741-1.88,3.772-2.091,6.663-2.126a29.42,29.42,0,0,1,4.718.59,9.485,9.485,0,0,0,4.7-.22,3.181,3.181,0,0,1-.729,1.9l1.33-.057a8.511,8.511,0,0,1-1.547,3.006,3.89,3.89,0,0,1,.508,1.8,11.144,11.144,0,0,1-.358,3.714,23.511,23.511,0,0,1-.528,3.541c-.133.46-.741.841-1.033.374-.125-.2-.172-.526-.292-.75a7.493,7.493,0,0,1-.408-.861,6.282,6.282,0,0,1-.238-3.751c.108-.431-.443-1.742-.767-1.78a19.52,19.52,0,0,0-4.527.722c-1.075.213-6.477-.244-7.07-1.219.278,2.443-1.612,2.84-1.982,5.018" transform="translate(-50.386 -36.535)" fill="#1e100a"/>
            <path id="Trazado_874636" data-name="Trazado 874636" d="M147.83,106.529a1.34,1.34,0,0,1,1.646-.183,1.315,1.315,0,0,1,.354,1.392,3.543,3.543,0,0,1-.805,1.28,4.727,4.727,0,0,0-.878,1.239c-.135.326-.274.756-.626.775-.293.017-.5-.285-.6-.559a3.672,3.672,0,0,1,.911-3.944" transform="translate(-62.73 -45.388)" fill="#ffb48c"/>
            <path id="Trazado_874637" data-name="Trazado 874637" d="M148.341,107.591a.675.675,0,0,1,.457-.2.543.543,0,0,1,.436.37,1.216,1.216,0,0,1-.129,1,7.276,7.276,0,0,1-.615.839,1.792,1.792,0,0,0-.412.94,1.345,1.345,0,0,1-.029.319.252.252,0,0,1-.227.193c-.12-.005-.2-.126-.239-.24a1.126,1.126,0,0,1,.108-.95c.112-.179.28-.342.29-.552a.419.419,0,0,0-.231-.375c-.076-.045-.144-.018-.172-.1-.019-.057.07-.23.091-.284a2.428,2.428,0,0,1,.673-.955" transform="translate(-63.086 -45.922)" fill="#f2854c"/>
            <path id="Trazado_874638" data-name="Trazado 874638" d="M118.715,106.529a1.34,1.34,0,0,0-1.646-.183,1.315,1.315,0,0,0-.354,1.392,3.543,3.543,0,0,0,.805,1.28,4.728,4.728,0,0,1,.878,1.239c.135.326.274.756.626.775.293.017.5-.285.6-.559a3.672,3.672,0,0,0-.911-3.944" transform="translate(-49.885 -45.388)" fill="#ffb48c"/>
            <path id="Trazado_874639" data-name="Trazado 874639" d="M119.275,107.591a.675.675,0,0,0-.457-.2.543.543,0,0,0-.436.37,1.216,1.216,0,0,0,.129,1,7.215,7.215,0,0,0,.616.839,1.8,1.8,0,0,1,.412.94,1.345,1.345,0,0,0,.029.319.252.252,0,0,0,.227.193c.12-.005.2-.126.239-.24a1.126,1.126,0,0,0-.108-.95c-.112-.179-.28-.342-.29-.552a.42.42,0,0,1,.231-.375c.076-.045.144-.018.172-.1.019-.057-.07-.23-.091-.284a2.428,2.428,0,0,0-.673-.955" transform="translate(-50.599 -45.922)" fill="#f2854c"/>
            <path id="Trazado_874640" data-name="Trazado 874640" d="M153.911,150.194a27.37,27.37,0,0,0-.341-4.691,9.034,9.034,0,0,1-.282-3.618,4.687,4.687,0,0,1,2.576-3.248" transform="translate(-65.506 -59.286)" fill="none" stroke="#e6f2f4" stroke-linecap="round" stroke-linejoin="round" stroke-width="0.49"/>
            <path id="Trazado_874641" data-name="Trazado 874641" d="M154.787,171.454a3.929,3.929,0,0,0-2.257-1.845" transform="translate(-65.227 -72.531)" fill="none" stroke="#e6f2f4" stroke-linecap="round" stroke-linejoin="round" stroke-width="0.49"/>
            <g id="Grupo_1101683" data-name="Grupo 1101683" transform="translate(84.735 87.577)" opacity="0.36" style="mix-blend-mode: multiply;isolation: isolate">
              <g id="Grupo_1101682" data-name="Grupo 1101682">
                <g id="Grupo_1101681" data-name="Grupo 1101681" clip-path="url(#clip-path-19)">
                  <path id="Trazado_874642" data-name="Trazado 874642" d="M154.6,153.869c.192.07.4.088.594.151a.663.663,0,0,1,.452.38.761.761,0,0,1-.194.664,1.584,1.584,0,0,0-.365.612c-.049.259.07.532,0,.787-.08.3-.4.485-.548.761-.188.343-.1.787-.283,1.132-.248.461-.858.553-1.3.831a2.76,2.76,0,0,0-.97,1.292,7.307,7.307,0,0,1-.722,1.469,1.239,1.239,0,0,1-.755.532,1.583,1.583,0,0,1-.748-.121,3.052,3.052,0,0,1-.992-.482,2.023,2.023,0,0,1-.64-1.094,5.023,5.023,0,0,1,.749-3.386,11.51,11.51,0,0,1,1.933-2.824,5.9,5.9,0,0,1,2.087-1.4c.3-.114.642-.278.912-.039.291.256.389.592.79.738" transform="translate(-148.044 -153.009)" fill="#1994b3"/>
                </g>
              </g>
            </g>
            <path id="Trazado_874643" data-name="Trazado 874643" d="M148.667,154.451a4.789,4.789,0,0,1,2.289-1.248l2.025-.658a.894.894,0,0,1,.44-.065.605.605,0,0,1,.321.863,1.433,1.433,0,0,1-.842.613,3.12,3.12,0,0,0-.967.437,1.945,1.945,0,0,0-.511,1.751,10.513,10.513,0,0,1,.233,1.885,6.791,6.791,0,0,1-1.456,3.419,2.156,2.156,0,0,1-2.06.082c-.65-.564-.853-2.142-.689-3.3a8.683,8.683,0,0,1,1.217-3.782" transform="translate(-63.031 -65.202)" fill="#ffb48c"/>
            <path id="Trazado_874644" data-name="Trazado 874644" d="M154.863,154.792a1.659,1.659,0,0,1,.709-.136.643.643,0,0,1,.559.44.767.767,0,0,1-.3.77,2.035,2.035,0,0,1-.749.3,9.425,9.425,0,0,0-2.556,1.113,4.288,4.288,0,0,1-1.059.559,1.075,1.075,0,0,1-1.1-.255c-.891-.99.733-1.4,1.258-1.6q1.609-.622,3.235-1.19" transform="translate(-64.191 -66.134)" fill="#ffb48c"/>
            <path id="Trazado_874645" data-name="Trazado 874645" d="M154.14,157.621a1.668,1.668,0,0,1,.709-.136.644.644,0,0,1,.559.44.767.767,0,0,1-.3.77,2.025,2.025,0,0,1-.749.3,9.425,9.425,0,0,0-2.556,1.113,4.288,4.288,0,0,1-1.059.559,1.076,1.076,0,0,1-1.1-.255c-.89-.99.734-1.4,1.259-1.6q1.609-.622,3.235-1.19" transform="translate(-63.882 -67.344)" fill="#ffb48c"/>
            <path id="Trazado_874646" data-name="Trazado 874646" d="M153.581,160.251a1.436,1.436,0,0,1,.613-.117.555.555,0,0,1,.484.381.663.663,0,0,1-.256.666,1.744,1.744,0,0,1-.648.26,8.151,8.151,0,0,0-2.212.964,3.691,3.691,0,0,1-.917.483.93.93,0,0,1-.952-.221c-.77-.856.635-1.211,1.089-1.386q1.393-.539,2.8-1.03" transform="translate(-63.917 -68.477)" fill="#ffb48c"/>
            <g id="Grupo_1101686" data-name="Grupo 1101686" transform="translate(67.833 90.261)" opacity="0.36" style="mix-blend-mode: multiply;isolation: isolate">
              <g id="Grupo_1101685" data-name="Grupo 1101685">
                <g id="Grupo_1101684" data-name="Grupo 1101684" clip-path="url(#clip-path-20)">
                  <path id="Trazado_874647" data-name="Trazado 874647" d="M119.987,158.21a15.671,15.671,0,0,0,1.472,1.079,7.813,7.813,0,0,0,2.988.629,37.148,37.148,0,0,1,9.5,2.751,6.6,6.6,0,0,1,2.09,1.223,68.2,68.2,0,0,0-11.553-3.206,19.257,19.257,0,0,1-4.059-1.039,4.782,4.782,0,0,1-1.7-1.382c-.783-1.064.826-.364,1.261-.056" transform="translate(-118.514 -157.698)" fill="#1994b3"/>
                </g>
              </g>
            </g>
            <path id="Trazado_874648" data-name="Trazado 874648" d="M115.175,156.725c-.422.1-1.44.037-1.751.378s.056,1.109-.089,1.573a3.954,3.954,0,0,0-.048,1.577,17.576,17.576,0,0,0,.43,2.848c.04.155.2.861.433.837l2.483-.264c.236,0,1.176-2.051,1.342-2.34.346-.6,1.012-1.6.831-1.75-.486-.413-1.314-1.384-1.747-1.862-.5-.55-1.139-1.168-1.885-1" transform="translate(-48.422 -67.009)" fill="#ffb48c"/>
            <path id="Trazado_874649" data-name="Trazado 874649" d="M114.38,141.13c.631,3.181-.215,4.143-.748,7.34s-.857,6.6.66,9.494" transform="translate(-48.403 -60.352)" fill="none" stroke="#e6f2f4" stroke-linecap="round" stroke-linejoin="round" stroke-width="0.5"/>
            <path id="Trazado_874650" data-name="Trazado 874650" d="M113.017,144.906c0-3.206-.6-5.046-2.55-7.218" transform="translate(-47.239 -58.88)" fill="none" stroke="#e6f2f4" stroke-linecap="round" stroke-linejoin="round" stroke-width="0.5"/>
            <path id="Trazado_874651" data-name="Trazado 874651" d="M108.752,176.262a7.765,7.765,0,0,1,3.643-5.719,4.072,4.072,0,0,0-1.361,3.251" transform="translate(-46.506 -72.93)" fill="none" stroke="#e6f2f4" stroke-linecap="round" stroke-linejoin="round" stroke-width="0.5"/>
            <path id="Trazado_874652" data-name="Trazado 874652" d="M147.426,161.819a5.625,5.625,0,0,0,.774,3.837" transform="translate(-63.009 -69.199)" fill="none" stroke="#e6f2f4" stroke-linecap="round" stroke-linejoin="round" stroke-width="0.5"/>
            <path id="Trazado_874653" data-name="Trazado 874653" d="M147.922,171.815a10.376,10.376,0,0,0-.4-2.765,2.457,2.457,0,0,0-.977-1.3l-8.145-2.727" transform="translate(-59.182 -70.57)" fill="none" stroke="#e6f2f4" stroke-linecap="round" stroke-linejoin="round" stroke-width="0.5"/>
            <path id="Trazado_874654" data-name="Trazado 874654" d="M152.773,147.779a5.3,5.3,0,0,1-1.3-4.408" transform="translate(-64.742 -61.31)" fill="none" stroke="#e6f2f4" stroke-linecap="round" stroke-linejoin="round" stroke-width="0.411"/>
            <path id="Trazado_874655" data-name="Trazado 874655" d="M121.219,161.743a18.269,18.269,0,0,1-2.345,4.355l19.991,9.442" transform="translate(-50.835 -69.167)" fill="none" stroke="#e6f2f4" stroke-linecap="round" stroke-linejoin="round" stroke-width="0.5"/>
            <path id="Trazado_874656" data-name="Trazado 874656" d="M99.011,371.6a1.923,1.923,0,0,1,1.4,1.819" transform="translate(-42.34 -158.91)" fill="none" stroke="#fff" stroke-linecap="round" stroke-linejoin="round" stroke-width="1"/>
            <path id="Trazado_874657" data-name="Trazado 874657" d="M102.557,370.852a2.1,2.1,0,0,1,1.743,1.893" transform="translate(-43.857 -158.589)" fill="none" stroke="#fff" stroke-linecap="round" stroke-linejoin="round" stroke-width="1"/>
            <path id="Trazado_874658" data-name="Trazado 874658" d="M106.246,369.707a2.254,2.254,0,0,1,1.7,1.995" transform="translate(-45.434 -158.099)" fill="none" stroke="#fff" stroke-linecap="round" stroke-linejoin="round" stroke-width="1"/>
            <path id="Trazado_874659" data-name="Trazado 874659" d="M157.045,372.1a3.522,3.522,0,0,0-3.134,1.067" transform="translate(-65.818 -159.103)" fill="none" stroke="#fff" stroke-linecap="round" stroke-linejoin="round" stroke-width="0.744"/>
            <path id="Trazado_874660" data-name="Trazado 874660" d="M155.1,370.413a2.988,2.988,0,0,0-3.394,1.156" transform="translate(-64.874 -158.322)" fill="none" stroke="#fff" stroke-linecap="round" stroke-linejoin="round" stroke-width="0.744"/>
            <path id="Trazado_874661" data-name="Trazado 874661" d="M154.008,368.686a3.162,3.162,0,0,0-3.742,1.065" transform="translate(-64.259 -157.564)" fill="none" stroke="#fff" stroke-linecap="round" stroke-linejoin="round" stroke-width="0.744"/>
            <path id="Trazado_874662" data-name="Trazado 874662" d="M109.39,377.638l-8.974.023c-2.648.007-5.3.026-7.944-.014-.176,0-.176.71,0,.71l5.459,0h6.749q2.373,0,4.747,0a1.418,1.418,0,0,0-.038-.721" transform="translate(-39.488 -161.491)" fill="#fff"/>
            <path id="Trazado_874663" data-name="Trazado 874663" d="M155.323,377.655c-2.7.6-9.085-.023-10.642,0-.169,0-.169.71,0,.71,3.043,0,8.307,0,10.642,0,.169,0,.166-.746,0-.71" transform="translate(-61.816 -161.498)" fill="#fff"/>
            <path id="Trazado_874664" data-name="Trazado 874664" d="M102.642,33.871c-2.687,3.339-7.053,6.65-10.176,9.595-3.7,3.489-7.6,6.811-11.2,10.407-.223.21-.643.823-.672.527a50.651,50.651,0,0,1-.567-5.39c0-1.282-.5-3.413-.017-4.64.579-1.461,3.677-1.762,5.081-2.4q4.279-1.956,8.553-3.923l4.161-1.909c1.358-.622,3.332-2.021,4.833-2.263" transform="translate(-34.127 -14.484)" fill="#93acb1"/>
            <path id="Trazado_874665" data-name="Trazado 874665" d="M72.493,37.492a41.813,41.813,0,0,1,5.526-1.734q3.717-.856,7.438-1.686,4.59-1.023,9.188-2.008c1.212-.26,2.429-.5,3.645-.736,1.054-.206,3.517-.818,3.594-.592a30.379,30.379,0,0,1-2.812,4.82c-1.28,1.841-2.366,3.839-3.529,5.756-1.161,2.323-2.74,4.519-4.088,6.74l-2.11,3.478c-.534.88-.966,2.406-1.948,2.028-.631-.243-4.916-5.185-5.242-4.859L99.087,32.715C91.678,36.146,77.4,43.042,76.86,43.007a32.416,32.416,0,0,1-3.082-3.5c-.662-.77-1.609-1.5-1.285-2.019" transform="translate(-30.972 -13.123)" fill="#36737d"/>
            <path id="Trazado_874666" data-name="Trazado 874666" d="M77.046,72.707l-1.325,1.5" transform="translate(-32.381 -31.092)" fill="none" stroke="#0a2c4a" stroke-linecap="round" stroke-linejoin="round" stroke-width="2"/>
            <path id="Trazado_874667" data-name="Trazado 874667" d="M59.135,80.613a95.947,95.947,0,0,0-9.591,12.839c-3.792,6.3-6.463,13.451-6.461,20.8s2.941,14.9,8.717,19.445a18.581,18.581,0,0,0,16.989,3.124" transform="translate(-18.423 -34.473)" fill="none" stroke="#0a2c4a" stroke-linecap="round" stroke-linejoin="round" stroke-width="2" stroke-dasharray="6.996 6.996"/>
            <path id="Trazado_874668" data-name="Trazado 874668" d="M91.224,176.73a14.48,14.48,0,0,0,1.729-1.009" transform="translate(-39.01 -75.144)" fill="none" stroke="#0a2c4a" stroke-linecap="round" stroke-linejoin="round" stroke-width="2"/>
            <rect id="Rectángulo_402375" data-name="Rectángulo 402375" width="220.799" height="3.46" transform="translate(8.296 216.864)" fill="#0a2c4a"/>
            <path id="Trazado_874669" data-name="Trazado 874669" d="M361.769,362.184a.224.224,0,0,0-.014.025.575.575,0,0,0-.032.25c.058,2.81.072,5.622.151,8.432a2.452,2.452,0,0,0,.021.614c.134.319,5.312.145,6.7.145h6.519a9.606,9.606,0,0,0-.113-1.472,3.265,3.265,0,0,0-.654-1.643,2.117,2.117,0,0,0-1.186-.625,21.56,21.56,0,0,1-3.631-.984,5.163,5.163,0,0,1-2.455-1.465,8.437,8.437,0,0,1-.749-3.283.178.178,0,0,0-.034-.092.1.1,0,0,0-.081-.023c-1.493.027-2.636.014-4.13,0a.341.341,0,0,0-.317.122" transform="translate(-154.685 -154.83)" fill="#000021"/>
            <path id="Trazado_874670" data-name="Trazado 874670" d="M379.349,371.754a1.923,1.923,0,0,0-1.4,1.819" transform="translate(-161.625 -158.975)" fill="none" stroke="#fff" stroke-linecap="round" stroke-linejoin="round" stroke-width="1"/>
            <path id="Trazado_874671" data-name="Trazado 874671" d="M375.6,370.852a2.1,2.1,0,0,0-1.743,1.893" transform="translate(-159.876 -158.589)" fill="none" stroke="#fff" stroke-linecap="round" stroke-linejoin="round" stroke-width="1"/>
            <path id="Trazado_874672" data-name="Trazado 874672" d="M372.456,369.56a2.254,2.254,0,0,0-1.7,1.995" transform="translate(-158.548 -158.036)" fill="none" stroke="#fff" stroke-linecap="round" stroke-linejoin="round" stroke-width="1"/>
            <path id="Trazado_874673" data-name="Trazado 874673" d="M339.435,362.184a.214.214,0,0,1,.014.025.575.575,0,0,1,.032.25c-.058,2.81-.072,5.622-.151,8.432a2.451,2.451,0,0,1-.021.614c-.134.319-5.312.145-6.7.145h-3.226a9.6,9.6,0,0,1,.113-1.472,3.265,3.265,0,0,1,.654-1.643,2.117,2.117,0,0,1,1.186-.625c1.216-.256,2.288-1.668,2.794-2.45a8.437,8.437,0,0,0,.749-3.283.179.179,0,0,1,.034-.092.1.1,0,0,1,.081-.023c1.493.027,2.636.014,4.13,0a.341.341,0,0,1,.316.122" transform="translate(-140.847 -154.83)" fill="#000021"/>
            <path id="Trazado_874674" data-name="Trazado 874674" d="M333.223,371.9a2.549,2.549,0,0,1,2.532,1.067" transform="translate(-142.497 -159.021)" fill="none" stroke="#fff" stroke-linecap="round" stroke-linejoin="round" stroke-width="0.669"/>
            <path id="Trazado_874675" data-name="Trazado 874675" d="M335.435,370.222c1.207-.586,2.194.343,2.741,1.156" transform="translate(-143.443 -158.241)" fill="none" stroke="#fff" stroke-linecap="round" stroke-linejoin="round" stroke-width="0.669"/>
            <path id="Trazado_874676" data-name="Trazado 874676" d="M337.162,368.495a2.289,2.289,0,0,1,3.023,1.065" transform="translate(-144.182 -157.483)" fill="none" stroke="#fff" stroke-linecap="round" stroke-linejoin="round" stroke-width="0.669"/>
            <path id="Trazado_874677" data-name="Trazado 874677" d="M331.637,202.166c-1.084,1.457-1.591,5.5-2.153,12.748-1.01,13.023,4.593,79.823,4.593,79.823h5.355s2.5-19.684,2.267-27.592c-.043-1.469-.4-6.025-.4-6.025L344,229.476l2.894,31.877s-.772,4.867-.807,6.328c-.157,6.42,1.621,27.055,1.621,27.055h5.35s7.4-60.022,5.16-81.008a93.033,93.033,0,0,0-1.944-12.207c-1.122-4.993-21.587-3.461-24.642.644" transform="translate(-140.846 -84.836)" fill="#36737d"/>
            <path id="Trazado_874678" data-name="Trazado 874678" d="M339.85,105.713a13.556,13.556,0,0,1-.116,5.323c-.416,1.491-1.275,2.82-1.62,4.331-.714,3.13,1.018,6.474,3.564,8.248a14.463,14.463,0,0,0,8.778,2.136,12.521,12.521,0,0,0,7-1.941,6.709,6.709,0,0,0,2.851-6.623c-.54-2.391-2.623-4.052-3.525-6.318-1.476-3.705-.363-7.819-2.082-11.406-1.231-2.568-4.41-4.039-7.136-4.134-1.309-.045-1.277.726-2.39,1.26-1.3.623-2.768.553-4.036,1.347-.989.619-2.24,1.622-2.085,2.778.267,1.992.72,4.367.8,5" transform="translate(-144.519 -40.765)" fill="#1e100a"/>
            <path id="Trazado_874679" data-name="Trazado 874679" d="M357.536,174.064a48.982,48.982,0,0,1-1.17-12.5c.592-14.131,3.946-29.735,2.973-30.074-2.639-.92-8.568-1.742-10-2.991-3.236-2.823-4.3-2.659-7.412.317-1.688,1.616-10.794,2.7-11.455,4.181-.12.267.952,2.347-.01,12.534-.414,4.393,2.929,9.734,2.142,18.822A86.3,86.3,0,0,1,331,174.063a42.38,42.38,0,0,0,4.5.819c6.721.916,13.51.309,20.2-.565a14.8,14.8,0,0,1,1.835-.253" transform="translate(-141.302 -54.086)" fill="#ebc54a"/>
            <g id="Grupo_1101689" data-name="Grupo 1101689" transform="translate(189.744 100.184)" opacity="0.36" style="mix-blend-mode: multiply;isolation: isolate">
              <g id="Grupo_1101688" data-name="Grupo 1101688">
                <g id="Grupo_1101687" data-name="Grupo 1101687" clip-path="url(#clip-path-21)">
                  <path id="Trazado_874680" data-name="Trazado 874680" d="M357.275,175.711c-.074.824-.271,3.478-.329,4.308a32.5,32.5,0,0,1-6.107,1.345c-1.2.168-4.116.259-5.108.822-1.9,1.074-9.634,9.334-14.224,12.362a35.679,35.679,0,0,0,1.551-9.061,22.778,22.778,0,0,1,8.231-7.321,28.334,28.334,0,0,1,13.084-3.131,5.531,5.531,0,0,1,2.467.395,2.7,2.7,0,0,1,.435.28" transform="translate(-331.508 -175.035)" fill="#fddd50"/>
                </g>
              </g>
            </g>
            <path id="Trazado_874681" data-name="Trazado 874681" d="M357.927,125.11s-.378,6.087-3.515,6.087c-3.361,0-3.836-4.837-3.9-5.769-.006-.1-.006-.155-.006-.155l.419-5.81,6.7-.907Z" transform="translate(-149.89 -50.699)" fill="#ffb48c"/>
            <path id="Trazado_874682" data-name="Trazado 874682" d="M357.687,119.883a7.009,7.009,0,0,1-3.654,5.1,7.335,7.335,0,0,1-3.517.447c0-.1,0-.155,0-.155l.418-5.81,6.7-.907Z" transform="translate(-149.89 -50.699)" fill="#f2854c"/>
            <path id="Trazado_874683" data-name="Trazado 874683" d="M354.585,110.263c-.916,4.175-5.13,5.664-7.212,5.664-2.576,0-4.2-3.827-4.2-9.984s.833-7.218,6.129-7.218,6.6,5.524,5.282,11.538" transform="translate(-146.753 -42.218)" fill="#ffb48c"/>
            <path id="Trazado_874684" data-name="Trazado 874684" d="M346,112.494a.671.671,0,1,1-.645-.855c.356,0,.645.383.645.855" transform="translate(-147.407 -47.741)" fill="#0c0b0b"/>
            <path id="Trazado_874685" data-name="Trazado 874685" d="M344.8,109.08a1.835,1.835,0,0,0-1.623.189" transform="translate(-146.753 -46.601)" fill="none" stroke="#1e100a" stroke-linecap="round" stroke-linejoin="round" stroke-width="0.684"/>
            <path id="Trazado_874686" data-name="Trazado 874686" d="M354.148,112.494a.671.671,0,1,0,.646-.855.772.772,0,0,0-.646.855" transform="translate(-151.446 -47.741)" fill="#0c0b0b"/>
            <path id="Trazado_874687" data-name="Trazado 874687" d="M353.1,109.093a2.571,2.571,0,0,1,1.882.219" transform="translate(-150.997 -46.614)" fill="none" stroke="#1e100a" stroke-linecap="round" stroke-linejoin="round" stroke-width="0.684"/>
            <path id="Trazado_874688" data-name="Trazado 874688" d="M350.809,103.55c.554.893,1.582,2.37,2.662,1.925.4-.166.327,1.6.428,2.021.112.474,1.184.8,1.721-.429,1.073-2.445.731-3.748.007-6.311-.742-2.624-2-4.413-4.676-5.025-2.605-.6-5.753-1-7.984.815a2.165,2.165,0,0,0-2.625,1.339c-.814,1.763-.549,3.194.018,5.048a.759.759,0,0,0,.227.4.563.563,0,0,0,.6.008,1.455,1.455,0,0,0,.443-.44c.476-.648,1.034-1.8,1.529-2.4.243.592.982,1.684,3.442,1.888,1.258.1,3.412-.127,4.211,1.161" transform="translate(-145.321 -40.722)" fill="#1e100a"/>
            <path id="Trazado_874689" data-name="Trazado 874689" d="M347.774,123.138a3.525,3.525,0,0,0,2.837.013" transform="translate(-148.72 -52.658)" fill="none" stroke="#1e100a" stroke-linecap="round" stroke-linejoin="round" stroke-width="0.684"/>
            <path id="Trazado_874690" data-name="Trazado 874690" d="M348.683,114.016a6.65,6.65,0,0,1-.622,2.157,1,1,0,0,0-.149.833c.13.275.48.347.782.387" transform="translate(-148.759 -48.757)" fill="none" stroke="#1e100a" stroke-linecap="round" stroke-linejoin="round" stroke-width="0.641"/>
            <path id="Trazado_874691" data-name="Trazado 874691" d="M362.936,112a1.02,1.02,0,0,1,1.351.2,1.5,1.5,0,0,1-.067,1.3,16.871,16.871,0,0,1-1.075,2.483c-.122.215-.29.449-.537.465-.285.019-.493-.261-.611-.521a3.152,3.152,0,0,1,.94-3.93" transform="translate(-154.672 -47.826)" fill="#ffb48c"/>
            <path id="Trazado_874692" data-name="Trazado 874692" d="M363.156,113.058a.669.669,0,0,1,.448-.229.456.456,0,0,1,.375.25.749.749,0,0,1,.064.461c-.118.817-1.09,1.34-1.121,2.165a.886.886,0,0,1-.023.259.2.2,0,0,1-.192.144c-.079-.011-.13-.087-.165-.158a1.457,1.457,0,0,1-.139-.81c.032-.278.262-.552.234-.824-.024-.231-.139-.272-.033-.518a2.428,2.428,0,0,1,.552-.739" transform="translate(-154.972 -48.249)" fill="#f2854c"/>
            <path id="Trazado_874693" data-name="Trazado 874693" d="M361.924,377.656c1.983.054,3.968.07,5.952.07,2.209.01,4.422.025,6.63-.047.2-.007.4-.014.6-.023.169-.007.169.71,0,.71-2.505,0-10.485,0-13.179,0-.169,0-.169-.714,0-.71" transform="translate(-154.717 -161.498)" fill="#fff"/>
            <path id="Trazado_874694" data-name="Trazado 874694" d="M329.364,377.6c1.652-.048,2.953.088,4.606.078.836-.005,2.023-.154,2.859-.151a19.834,19.834,0,0,1,2.44.07l.025,0c.093.012.168.71,0,.71-1.779,0-8.724,0-9.929,0-.168,0-.016-.709,0-.71" transform="translate(-140.814 -161.441)" fill="#fff"/>
            <rect id="Rectángulo_402377" data-name="Rectángulo 402377" width="81.046" height="14.398" transform="translate(169.263 119.642) rotate(-45)" fill="#1994b3"/>
            <rect id="Rectángulo_402378" data-name="Rectángulo 402378" width="73.18" height="4.987" transform="translate(172.59 122.969) rotate(-45)" fill="#abdbe8"/>
            <rect id="Rectángulo_402379" data-name="Rectángulo 402379" width="2.601" height="14.398" transform="translate(220.089 68.816) rotate(-45)" fill="#0a2c4a"/>
            <rect id="Rectángulo_402380" data-name="Rectángulo 402380" width="5.617" height="14.398" transform="translate(222.6 66.305) rotate(-45)" fill="#0a2c4a"/>
            <path id="Trazado_874695" data-name="Trazado 874695" d="M291.3,222.524l-1.36-1.36,3.313-12.134,10.181,10.181Z" transform="translate(-123.986 -89.388)" fill="#ffb48c"/>
            <path id="Trazado_874696" data-name="Trazado 874696" d="M288.176,232.477h0a.962.962,0,0,1,0-1.36l.887-.887,1.36,1.36-.887.887a.962.962,0,0,1-1.36,0" transform="translate(-123.113 -98.454)" fill="#0c0b0b"/>
            <path id="Trazado_874697" data-name="Trazado 874697" d="M405.788,118.513c-1.334,1.334-4.7.137-7.507-2.674s-4.008-6.172-2.674-7.506,4.7-.137,7.507,2.674,4.008,6.172,2.674,7.506" transform="translate(-168.942 -46.094)" fill="#0a2c4a"/>
            <path id="Trazado_874698" data-name="Trazado 874698" d="M346.112,176.468c-.025-.042-1.047.3-1.149.308a2.185,2.185,0,0,1-.362-.007c-.841-.064-1.717-.157-2.575-.148a7.568,7.568,0,0,0-2.109.274,1.855,1.855,0,0,0-.278.107c-.192.094-.854.414-.873.655a.512.512,0,0,0,.092.285.614.614,0,0,0,.367.345.683.683,0,0,0,.311-.04,4.576,4.576,0,0,1,1.643-.149,4.616,4.616,0,0,0-1.2.336,8.79,8.79,0,0,1-1.627.365c-.827.077-1.353.118-2.18.162a.4.4,0,0,0-.177.036c-.156.086-.122.458-.05.586a.326.326,0,0,0,.283.133c.384.014,1.981.053,2.5.059a5.812,5.812,0,0,0,1.177-.052c-.7.141-1.363.42-2.059.571a14.253,14.253,0,0,0-2.355.435c-.09.138,0,.375.047.513a.417.417,0,0,0,.523.316c.432-.058.857-.094,1.292-.125l1.208-.085a7.8,7.8,0,0,0-1.319.221,1.6,1.6,0,0,0-.729.248.707.707,0,0,0-.108.581c.124.4,1.314.085,1.624.056a10.643,10.643,0,0,1,1.3-.122l.129,0c-.318.076-1.632.084-1.745.439-.049.155.12.408.234.5a.686.686,0,0,0,.521.106c.388-.047.775-.09,1.163-.139l2.742-.346,3.718-1.707,2.046-1.271-2.02-3.453" transform="translate(-143.45 -75.462)" fill="#ffb48c"/>
            <path id="Trazado_874699" data-name="Trazado 874699" d="M314.117,205.609c-.191,1.093.568,2.1.961,3.134a4.951,4.951,0,0,1,.257,2.53c-.054.337-.221.738-.561.761-.41.028-.6-.505-.588-.916s.078-.9-.241-1.158a11.2,11.2,0,0,0,.489,4.521,1.019,1.019,0,0,1,.025.545.355.355,0,0,1-.425.252.51.51,0,0,1-.235-.266,11.089,11.089,0,0,1-1.109-3.464,15.467,15.467,0,0,0,.282,3.559,1.641,1.641,0,0,1,.046.62.524.524,0,0,1-.391.438c-.38.06-.594-.416-.673-.793l-.429-2.039a4.9,4.9,0,0,1,.026.544c.015.171.034.342.056.512.035.271.067.541.091.813.008.091.062.23.014.317-.08.147-.371.1-.5.076a.4.4,0,0,1-.354-.342,17.03,17.03,0,0,1-.538-2.65c.053.561.125,1.123.149,1.687.008.178-.211.164-.331.139a.464.464,0,0,1-.415-.354c-.122-.492-.25-.983-.358-1.479a12.078,12.078,0,0,1-.274-1.844,15.5,15.5,0,0,1,.774-5.149c.079-.278.139-.863.39-.969.233-.1,1.1.276,1.359.341.21.053,2.508.6,2.5.634" transform="translate(-132.171 -87.502)" fill="#ffb48c"/>
            <path id="Trazado_874700" data-name="Trazado 874700" d="M371.111,154.7s2.69,9.549,1.422,12.086-19.059,5.356-19.059,5.356l-1.791-4.667s12.871-3.974,13.76-5.242a4.463,4.463,0,0,0,.167-2.03Z" transform="translate(-150.392 -66.156)" fill="#fddd50"/>
            <path id="Trazado_874701" data-name="Trazado 874701" d="M361.767,171.031l-8.053,8.053c-.16.029-.24.04-.24.04l-1.785-4.665s.7-.217,1.8-.567c2.089-.67,5.592-1.826,8.276-2.862" transform="translate(-150.394 -73.139)" fill="#1994b3"/>
            <path id="Trazado_874702" data-name="Trazado 874702" d="M372.547,166.178a2.763,2.763,0,0,1-1.2,1.129,36.132,36.132,0,0,1-8.99,2.723c-2.472.544-4.96,1.021-7.454,1.45-.4.068-.8.129-1.195.2-.16.029-.24.04-.24.04l-1.786-4.665s.7-.217,1.8-.567c2.089-.67,5.592-1.826,8.276-2.862a12.212,12.212,0,0,0,3.68-1.814,4.478,4.478,0,0,0,.166-2.032l6.064-6.063s.749,6.1.987,7.872c.2,1.513.594,3.3-.116,4.589" transform="translate(-150.393 -65.735)" fill="#ebc54a"/>
            <g id="Grupo_1101692" data-name="Grupo 1101692" transform="translate(203.097 87.996)" opacity="0.36" style="mix-blend-mode: multiply;isolation: isolate">
              <g id="Grupo_1101691" data-name="Grupo 1101691">
                <g id="Grupo_1101690" data-name="Grupo 1101690" clip-path="url(#clip-path-22)">
                  <path id="Trazado_874703" data-name="Trazado 874703" d="M373.9,166.19a2.8,2.8,0,0,1-1.2,1.128,20.665,20.665,0,0,1-3.4,1.362,1.393,1.393,0,0,0-.28.034c.212-.475,1.213-.853,1.671-1.116a5.827,5.827,0,0,0,1.676-1.3,4.288,4.288,0,0,0,.8-2.959c-.069-1.047-4.419-2.421-5.306-1.832a37.108,37.108,0,0,1-5.7,3.091,21.155,21.155,0,0,1-7.2,1.917.489.489,0,0,1-.125-.011c2.089-.67,5.592-1.826,8.276-2.862l3.846-3.846,5.5-5.5.555-.549a.018.018,0,0,0,.006.011c.051.412.761,6.141.99,7.847.2,1.511.59,3.3-.114,4.59" transform="translate(-354.838 -153.741)" fill="#fddd50"/>
                </g>
              </g>
            </g>
            <path id="Trazado_874704" data-name="Trazado 874704" d="M370.992,169.069a7,7,0,0,1,8.607-.286" transform="translate(-158.649 -71.604)" fill="none" stroke="#e6f2f4" stroke-linecap="round" stroke-linejoin="round" stroke-width="0.49"/>
            <path id="Trazado_874705" data-name="Trazado 874705" d="M375.148,166.006a3.865,3.865,0,0,0,.441.989,2.778,2.778,0,0,1,2.34,1.46" transform="translate(-160.426 -70.99)" fill="none" stroke="#e6f2f4" stroke-linecap="round" stroke-linejoin="round" stroke-width="0.49"/>
            <path id="Trazado_874706" data-name="Trazado 874706" d="M321.565,137.865c-1.279,2.252-8.126,17.5-8.672,19.658a157.565,157.565,0,0,0-3.3,19.578l4.791.247c.248-3.047,4.089-15.907,4.089-15.907s6.022-11.268,5.976-11.46l-2.888-12.115" transform="translate(-132.395 -58.956)" fill="#ebc54a"/>
          </g>
        </g>
      </g>
    </g>
  </g>
</svg>
