<svg id="_19" data-name="19" xmlns="http://www.w3.org/2000/svg" xmlns:xlink="http://www.w3.org/1999/xlink" width="277.915" height="167.453" viewBox="0 0 277.915 167.453">
  <defs>
    <clipPath id="clip-path">
      <rect id="Rectángulo_402355" data-name="Rectángulo 402355" width="277.915" height="167.453" fill="none"/>
    </clipPath>
    <clipPath id="clip-path-3">
      <rect id="Rectángulo_402343" data-name="Rectángulo 402343" width="24.027" height="7.883" fill="none"/>
    </clipPath>
    <clipPath id="clip-path-4">
      <rect id="Rectángulo_402344" data-name="Rectángulo 402344" width="8.508" height="32.163" fill="none"/>
    </clipPath>
    <clipPath id="clip-path-5">
      <rect id="Rectángulo_402345" data-name="Rectángulo 402345" width="8.448" height="27.612" fill="none"/>
    </clipPath>
    <clipPath id="clip-path-6">
      <rect id="Rectángulo_402346" data-name="Rectángulo 402346" width="6.023" height="6.27" fill="none"/>
    </clipPath>
    <clipPath id="clip-path-7">
      <rect id="Rectángulo_402349" data-name="Rectángulo 402349" width="13.994" height="91.156" fill="none"/>
    </clipPath>
    <clipPath id="clip-path-8">
      <rect id="Rectángulo_402351" data-name="Rectángulo 402351" width="1.112" height="2.802" fill="none"/>
    </clipPath>
    <clipPath id="clip-path-9">
      <rect id="Rectángulo_402352" data-name="Rectángulo 402352" width="2.773" height="2.773" fill="none"/>
    </clipPath>
    <clipPath id="clip-path-10">
      <rect id="Rectángulo_402353" data-name="Rectángulo 402353" width="2.407" height="6.063" fill="none"/>
    </clipPath>
  </defs>
  <g id="Enmascarar_grupo_1101631" data-name="Enmascarar grupo 1101631" clip-path="url(#clip-path)">
    <g id="Grupo_1101630" data-name="Grupo 1101630" transform="translate(0 0)">
      <g id="Grupo_1101629" data-name="Grupo 1101629" clip-path="url(#clip-path)">
        <path id="Trazado_874523" data-name="Trazado 874523" d="M389.014,527.192C402.478,551.285,383,598.555,259.439,565.7c-61.95-16.471-108.224,20.634-117.759-5.266-22.211-60.329,68.5-130.116,118.938-81.394C306.724,523.578,364.51,483.342,389.014,527.192Z" transform="translate(-123.383 -412.942)" fill="none" stroke="#e4e4e4" stroke-miterlimit="10" stroke-width="4" stroke-dasharray="32.088 32.088"/>
        <path id="Trazado_874524" data-name="Trazado 874524" d="M372.824,698.549H120.9C128.779,640.3,182.164,595.24,246.86,595.24S364.94,640.3,372.824,698.549" transform="translate(-107.902 -531.266)" fill="#f7e7b6"/>
        <path id="Trazado_874525" data-name="Trazado 874525" d="M1306.161,290.257H1211.4a7.988,7.988,0,0,1-7.988-7.988V146.345a7.988,7.988,0,0,1,7.988-7.988h94.758a7.988,7.988,0,0,1,7.988,7.988V282.269a7.988,7.988,0,0,1-7.988,7.988" transform="translate(-1074.079 -123.487)" fill="#ebc54a"/>
        <rect id="Rectángulo_402322" data-name="Rectángulo 402322" width="91.143" height="132.396" transform="translate(139.345 20.992)" fill="#f6f5f5"/>
        <path id="Trazado_874526" data-name="Trazado 874526" d="M1387.668,195.323c.028,51.627,1.7,113.892-4.1,127.678-25.543,2.489-55.452,3.287-87.04,3.436l12.007-130.715Z" transform="translate(-1157.181 -174.33)" fill="#e4e4e4"/>
        <path id="Trazado_874527" data-name="Trazado 874527" d="M1337.581,318.879c-39.813,6.372-66.422,6.708-88,5.105,2.8-29.771,3.918-79.228,5.046-128.605l47.975.107,43.42,2.866c.633,51.249.7,98.589-8.437,120.528" transform="translate(-1115.28 -174.38)" fill="#fff"/>
        <rect id="Rectángulo_402323" data-name="Rectángulo 402323" width="7.305" height="47.96" transform="translate(160.115 40.505) rotate(-88.652)" fill="#f8953e"/>
        <rect id="Rectángulo_402324" data-name="Rectángulo 402324" width="3.344" height="43.26" transform="translate(174.15 54.527) rotate(-88.652)" fill="#f8953e"/>
        <rect id="Rectángulo_402325" data-name="Rectángulo 402325" width="3.344" height="29.404" transform="translate(173.979 61.816) rotate(-88.652)" fill="#fdead8"/>
        <rect id="Rectángulo_402326" data-name="Rectángulo 402326" width="10.241" height="10.241" transform="translate(150.122 61.057) rotate(-88.652)" fill="#fff"/>
        <rect id="Rectángulo_402327" data-name="Rectángulo 402327" width="10.241" height="10.241" transform="translate(150.122 61.057) rotate(-88.652)" fill="none" stroke="#36737d" stroke-miterlimit="10" stroke-width="2"/>
        <path id="Trazado_874528" data-name="Trazado 874528" d="M1414.418,447.589c.316,1.21.9,6.279,3.438,4.862a7.723,7.723,0,0,0,1.519-1.688l2.362-2.681,4.723-5.362c.4-.458-1.378-1.607-1.885-1.032l-4.2,4.766-2.1,2.383c-.486.551-1.608,2.329-2.329,2.487l1.175.38c.277.227-.238-1.383-.249-1.427l-.586-2.243c-.161-.618-2.111-1.36-1.872-.445" transform="translate(-1262.386 -394.076)" fill="#ee6f57"/>
        <rect id="Rectángulo_402328" data-name="Rectángulo 402328" width="3.344" height="35.624" transform="translate(173.712 73.141) rotate(-88.652)" fill="#f8953e"/>
        <rect id="Rectángulo_402329" data-name="Rectángulo 402329" width="3.344" height="43.26" transform="translate(173.541 80.429) rotate(-88.652)" fill="#fdead8"/>
        <rect id="Rectángulo_402330" data-name="Rectángulo 402330" width="10.241" height="10.241" transform="translate(149.684 79.671) rotate(-88.652)" fill="#fff"/>
        <rect id="Rectángulo_402331" data-name="Rectángulo 402331" width="10.241" height="10.241" transform="translate(149.684 79.671) rotate(-88.652)" fill="none" stroke="#36737d" stroke-miterlimit="10" stroke-width="2"/>
        <path id="Trazado_874529" data-name="Trazado 874529" d="M1410.279,623.467c.316,1.21.9,6.279,3.438,4.862a7.729,7.729,0,0,0,1.519-1.688l2.361-2.681,4.723-5.362c.4-.458-1.378-1.607-1.885-1.032l-4.2,4.766-2.1,2.383c-.486.551-1.608,2.329-2.329,2.487l1.175.38c.277.227-.237-1.383-.249-1.427l-.586-2.243c-.161-.618-2.11-1.36-1.871-.445" transform="translate(-1258.692 -551.052)" fill="#ee6f57"/>
        <rect id="Rectángulo_402332" data-name="Rectángulo 402332" width="3.344" height="43.26" transform="translate(173.274 91.754) rotate(-88.652)" fill="#f8953e"/>
        <rect id="Rectángulo_402333" data-name="Rectángulo 402333" width="3.344" height="19.346" transform="matrix(0.024, -1, 1, 0.024, 173.103, 99.043)" fill="#fdead8"/>
        <rect id="Rectángulo_402334" data-name="Rectángulo 402334" width="10.241" height="10.241" transform="translate(149.246 98.285) rotate(-88.652)" fill="#fff"/>
        <rect id="Rectángulo_402335" data-name="Rectángulo 402335" width="10.241" height="10.241" transform="translate(149.246 98.285) rotate(-88.652)" fill="none" stroke="#36737d" stroke-miterlimit="10" stroke-width="2"/>
        <path id="Trazado_874530" data-name="Trazado 874530" d="M1407.495,797.889c.316,1.21.9,6.279,3.438,4.862a7.733,7.733,0,0,0,1.519-1.688l2.362-2.681,4.723-5.362c.4-.458-1.378-1.607-1.885-1.032l-4.2,4.766-2.1,2.383c-.486.551-1.609,2.33-2.329,2.487l1.175.38c.277.227-.237-1.383-.249-1.427l-.586-2.243c-.161-.618-2.111-1.36-1.871-.445" transform="translate(-1256.207 -706.728)" fill="#ee6f57"/>
        <rect id="Rectángulo_402336" data-name="Rectángulo 402336" width="3.344" height="43.26" transform="translate(172.836 110.368) rotate(-88.652)" fill="#f8953e"/>
        <rect id="Rectángulo_402337" data-name="Rectángulo 402337" width="3.344" height="34.173" transform="translate(172.665 117.657) rotate(-88.652)" fill="#fdead8"/>
        <rect id="Rectángulo_402338" data-name="Rectángulo 402338" width="10.241" height="10.241" transform="translate(148.808 116.898) rotate(-88.652)" fill="#fff"/>
        <rect id="Rectángulo_402339" data-name="Rectángulo 402339" width="10.241" height="10.241" transform="translate(148.808 116.898) rotate(-88.652)" fill="none" stroke="#36737d" stroke-miterlimit="10" stroke-width="2"/>
        <path id="Trazado_874531" data-name="Trazado 874531" d="M1403.446,969.944c.316,1.21.9,6.279,3.438,4.862a7.729,7.729,0,0,0,1.519-1.688l2.361-2.681,4.723-5.362c.4-.458-1.378-1.607-1.885-1.032l-4.2,4.766-2.1,2.383c-.485.551-1.608,2.329-2.329,2.487l1.176.38c.277.227-.238-1.383-.249-1.427l-.586-2.243c-.161-.618-2.11-1.36-1.871-.445" transform="translate(-1252.593 -860.291)" fill="#ee6f57"/>
        <rect id="Rectángulo_402340" data-name="Rectángulo 402340" width="3.344" height="17.148" transform="matrix(0.024, -1, 1, 0.024, 172.401, 128.841)" fill="#f8953e"/>
        <path id="Trazado_874532" data-name="Trazado 874532" d="M1645.843,1236.53l-43.248-1.018-.079,3.343c16.732.393,38.036,1.177,42.383.51a3.753,3.753,0,0,0,.943-2.834" transform="translate(-1430.287 -1102.725)" fill="#fdead8"/>
        <rect id="Rectángulo_402341" data-name="Rectángulo 402341" width="10.241" height="10.241" transform="translate(148.517 135.374) rotate(-88.652)" fill="#fff"/>
        <rect id="Rectángulo_402342" data-name="Rectángulo 402342" width="10.241" height="10.241" transform="translate(148.517 135.374) rotate(-88.652)" fill="none" stroke="#36737d" stroke-miterlimit="10" stroke-width="2"/>
        <path id="Trazado_874533" data-name="Trazado 874533" d="M1399.432,1140.492c.316,1.21.9,6.279,3.438,4.862a7.722,7.722,0,0,0,1.519-1.688l2.362-2.681,4.723-5.362c.4-.458-1.378-1.607-1.885-1.032l-4.2,4.766-2.1,2.383c-.486.551-1.608,2.329-2.329,2.487l1.175.38c.277.227-.238-1.383-.249-1.427l-.586-2.243c-.161-.618-2.11-1.36-1.872-.445" transform="translate(-1249.01 -1012.51)" fill="#ee6f57"/>
        <path id="Trazado_874534" data-name="Trazado 874534" d="M1568.63,15.786V26h-41.055V15.786a5.9,5.9,0,0,1,1.729-4.174,4.879,4.879,0,0,1,.417-.374,5.86,5.86,0,0,1,3.757-1.354A6.951,6.951,0,0,0,1536.5,9.2a7.234,7.234,0,0,0,1.135-.684,6.945,6.945,0,0,0,2.519-3.572A6.977,6.977,0,0,1,1546.822,0h2.562a6.977,6.977,0,0,1,6.672,4.944,6.949,6.949,0,0,0,2.519,3.572,7.229,7.229,0,0,0,1.135.684,6.952,6.952,0,0,0,3.018.688,5.91,5.91,0,0,1,5.9,5.9" transform="translate(-1363.4 0.004)" fill="#ee6f57"/>
        <path id="Trazado_874535" data-name="Trazado 874535" d="M1544.294,195.316v7.6h-47.719v-7.6h3.332v5.017h41.055v-5.017Z" transform="translate(-1335.732 -174.324)" fill="#e4e4e4"/>
        <path id="Trazado_874536" data-name="Trazado 874536" d="M1691.981,28.247a3.646,3.646,0,1,1-3.642-3.461,3.555,3.555,0,0,1,3.642,3.461" transform="translate(-1503.636 -22.122)" fill="#fff"/>
        <path id="Trazado_874537" data-name="Trazado 874537" d="M958.135,395.5c-1.456-.275-2.817-2.708-3.29-3.641a1.157,1.157,0,0,1-.1-.74l.579-3.072s1.337.227,1.234,2.008a1.313,1.313,0,0,0,.093.542l.512,1.339,1.513-1.172-.83-2.343a4.027,4.027,0,0,1-1.684.122c-1.178-.376.366-1.294.854-1.391s1.562-.488,2.05.342.781,1.318.781,1.318a18.375,18.375,0,0,0,.171-6.005c-.016-.187.451-.183.583-.049.393.4,1.019,1.618,1.053,5.322,0,0,.066-4.316.806-4.76.61-.366.918,1.746.489,5.329,0,0,.8-3.1,1.367-3.107.962-.009.013,8.284-2.406,10.756Z" transform="translate(-852.111 -341.538)" fill="#f9b384"/>
        <path id="Trazado_874538" data-name="Trazado 874538" d="M970.928,490.316q-.064.619-.142,1.2v0a34.885,34.885,0,0,1-.636,3.658c-.013.052-.021.1-.034.146-.735,3.014-.868,4.488-3.379,4.093l-2.584-2.94-.026-.03-.189-.215.525-1.548.069-.2.387-1.126.047-.146.662-1.939.267-.787Z" transform="translate(-860.339 -437.619)" fill="#f9b384"/>
        <path id="Trazado_874539" data-name="Trazado 874539" d="M516.211,1486.578l-.658,2.055c-4.51,1.482-7.14,3.179-7.308,5.159h13.04l1.045-6.882a10.117,10.117,0,0,1-6.12-.332" transform="translate(-453.622 -1326.808)" fill="#1f3c88"/>
        <path id="Trazado_874540" data-name="Trazado 874540" d="M584,1439.036l-1.635,5.109a10.118,10.118,0,0,0,6.12.332l.674-4.438Z" transform="translate(-519.776 -1284.376)" fill="#f9b384"/>
        <path id="Trazado_874541" data-name="Trazado 874541" d="M754.541,1441.239l.383-5.2-6.126.322-.335,4.8a10.023,10.023,0,0,0,6.078.084" transform="translate(-668.022 -1281.698)" fill="#f9b384"/>
        <path id="Trazado_874542" data-name="Trazado 874542" d="M757.55,1491.2c-.169-1.98-2.472-4.693-7.523-5.338l.155-2.1a10.023,10.023,0,0,1-6.078-.084l-.525,7.526Z" transform="translate(-663.662 -1324.217)" fill="#1f3c88"/>
        <path id="Trazado_874543" data-name="Trazado 874543" d="M697.448,422.162l-7.39.052V411.036h7.167l0,.684.034,3.542.052,5.688Z" transform="translate(-615.894 -366.859)" fill="#f9b384"/>
        <path id="Trazado_874544" data-name="Trazado 874544" d="M705.153,425.938c-1.328,1.4-4.793-.181-6.255-1.72l6.221-1.823Z" transform="translate(-623.784 -376.999)" fill="#e28b6d"/>
        <path id="Trazado_874545" data-name="Trazado 874545" d="M675.943,325.2a15.981,15.981,0,0,1-.193,2.515c-.361,2.253-1.315,4.2-3.517,4.26-5.2.15-6.685-2.824-7.665-5.258s.61-8.3.61-8.3l6.732-.666,3.7,3.031a27.583,27.583,0,0,1,.335,4.415" transform="translate(-592.859 -283.605)" fill="#f9b384"/>
        <path id="Trazado_874546" data-name="Trazado 874546" d="M637.621,288.507s1.484-.068,1.738-3.9a5.245,5.245,0,0,0,6.129-1.689,3.548,3.548,0,0,0,6.22-1.271c.9-2.561-1.576-6.377-5.177-4.066-3.528-1.783-8.88-1.66-10.421,2.712,0,0-5.354,2.469.315,7.9a6.552,6.552,0,0,0,1.195.309" transform="translate(-565.703 -246.786)" fill="#102048"/>
        <path id="Trazado_874547" data-name="Trazado 874547" d="M745.931,888.336,741.846,950.1h-9.6l2.4-59.935,1.469-.681Z" transform="translate(-653.547 -792.862)" fill="#afc7cb"/>
        <path id="Trazado_874548" data-name="Trazado 874548" d="M570.979,771.621l-6.735,70.217h10.461l9.959-58.323,11.321-3.439.5-12.467-25.221-.573Z" transform="translate(-503.602 -684.598)" fill="#afc7cb"/>
        <g id="Grupo_1101607" data-name="Grupo 1101607" transform="translate(66.754 80.071)" opacity="0.6">
          <g id="Grupo_1101606" data-name="Grupo 1101606">
            <g id="Grupo_1101605" data-name="Grupo 1101605" clip-path="url(#clip-path-3)">
              <path id="Trazado_874549" data-name="Trazado 874549" d="M623.242,752.12c5.714,2.051,19.119-.293,21.9-3.15l-1.978-3.956-22.049,2.93Z" transform="translate(-621.118 -745.014)" fill="#102048"/>
            </g>
          </g>
        </g>
        <path id="Trazado_874550" data-name="Trazado 874550" d="M673.21,509.732c-.185.077-.374.159-.568.232a38.8,38.8,0,0,1-7.162,2.132,32.853,32.853,0,0,1-4.8.589,27.745,27.745,0,0,1-7.54-.61l3.2-29.861.391-3.641s4.191,5.159,8.813-.537Z" transform="translate(-582.942 -426.659)" fill="#fff"/>
        <g id="Grupo_1101610" data-name="Grupo 1101610" transform="translate(70.196 53.903)" opacity="0.3">
          <g id="Grupo_1101609" data-name="Grupo 1101609">
            <g id="Grupo_1101608" data-name="Grupo 1101608" clip-path="url(#clip-path-4)">
              <path id="Trazado_874551" data-name="Trazado 874551" d="M660.678,533.66a27.745,27.745,0,0,1-7.54-.61l3.2-29.861,1.143-1.653c2.825,6.87,5.718,22.082,3.194,32.124" transform="translate(-653.138 -501.536)" fill="#1f3c88"/>
            </g>
          </g>
        </g>
        <path id="Trazado_874552" data-name="Trazado 874552" d="M394.8,472.036c3.184,13.521,4.495,27.433-.2,42.882a17.565,17.565,0,0,1-11.321.143l1-28.087L360.678,503.2l-1.433-8.849c9.075-8.678,24.766-21.787,35.556-22.319" transform="translate(-320.635 -421.304)" fill="#36737d"/>
        <g id="Grupo_1101613" data-name="Grupo 1101613" transform="translate(81.252 57.826)" opacity="0.3">
          <g id="Grupo_1101612" data-name="Grupo 1101612">
            <g id="Grupo_1101611" data-name="Grupo 1101611" clip-path="url(#clip-path-5)">
              <path id="Trazado_874553" data-name="Trazado 874553" d="M764.458,563.516a38.811,38.811,0,0,1-7.162,2.132c-1.423-8.159-1.737-21.564-.58-27.612Z" transform="translate(-756.01 -538.036)" fill="#1f3c88"/>
            </g>
          </g>
        </g>
        <g id="Grupo_1101616" data-name="Grupo 1101616" transform="translate(103.788 55.591)" opacity="0.6">
          <g id="Grupo_1101615" data-name="Grupo 1101615">
            <g id="Grupo_1101614" data-name="Grupo 1101614" clip-path="url(#clip-path-6)">
              <path id="Trazado_874554" data-name="Trazado 874554" d="M971.721,519.205c-.013.052-.021.1-.034.146-.735,3.014-.868,4.488-3.379,4.093l-2.584-2.94-.026-.03.335-1.763.069-.2.387-1.126.047-.146Z" transform="translate(-965.698 -517.237)" fill="#e28b6d"/>
            </g>
          </g>
        </g>
        <path id="Trazado_874555" data-name="Trazado 874555" d="M784.852,480.263s-6.341,13.434-10.1,13.757c-3.647.313-5.374-3.224-5.374-3.224l2.579,19.633a16.462,16.462,0,0,1-10.176,1.432c-3.409-11.07-4.7-25.383-4.951-41.324,2.76.172,8.226.408,10.183,1.666,3.511,2.257,7.846,10.318,7.846,10.318l5.051-6.878Z" transform="translate(-675.488 -419.965)" fill="#36737d"/>
        <path id="Trazado_874556" data-name="Trazado 874556" d="M298.319,333.971s.384-6.427,1.038-6.123,1.966,5.891,1.966,5.891L299.92,336Z" transform="translate(-266.257 -292.603)" fill="#6f3428"/>
        <path id="Trazado_874557" data-name="Trazado 874557" d="M361.068,1464.7l.19,2.115a6.788,6.788,0,0,1-6.153,7.368l-.544.049a6.788,6.788,0,0,1-7.368-6.154l-.19-2.115Z" transform="translate(-309.709 -1307.285)" fill="#ee6f57"/>
        <rect id="Rectángulo_402347" data-name="Rectángulo 402347" width="14.122" height="102.832" transform="matrix(0.996, -0.089, 0.089, 0.996, 28.092, 56.263)" fill="#fbc343"/>
        <g id="Grupo_1101619" data-name="Grupo 1101619" transform="translate(31.975 52.887)" opacity="0.3">
          <g id="Grupo_1101618" data-name="Grupo 1101618">
            <g id="Grupo_1101617" data-name="Grupo 1101617" clip-path="url(#clip-path-7)">
              <rect id="Rectángulo_402348" data-name="Rectángulo 402348" width="5.015" height="90.135" transform="matrix(0.996, -0.089, 0.089, 0.996, 0.467, 0.916)" fill="none" stroke="#6f3428" stroke-miterlimit="10" stroke-width="8"/>
            </g>
          </g>
        </g>
        <path id="Trazado_874558" data-name="Trazado 874558" d="M349.263,1333.443l-14.062,1.264-.37-4.127-.258-2.867-.8-8.813,14.066-1.264.791,8.813.258,2.867Z" transform="translate(-297.905 -1176.023)" fill="#102048"/>
        <rect id="Rectángulo_402350" data-name="Rectángulo 402350" width="14.119" height="2.879" transform="matrix(0.996, -0.09, 0.09, 0.996, 36.668, 151.69)" fill="#fbc343"/>
        <path id="Trazado_874559" data-name="Trazado 874559" d="M261.368,390.047l3.907-15.658a3.358,3.358,0,0,0,2.984-.412l7.175,14.806Z" transform="translate(-233.278 -333.784)" fill="#ee6f57"/>
        <path id="Trazado_874560" data-name="Trazado 874560" d="M648.278,376.314c-.063-.231-1.113-.548-1.344-.612a1.612,1.612,0,0,0-1.1.01c-1.269.574-1.1,2.391-.442,3.347a2.863,2.863,0,0,0,1.552,1.139c.231.066,2.414.092,2.318-.259l-.989-3.625" transform="translate(-575.581 -335.241)" fill="#f9b384"/>
        <path id="Trazado_874561" data-name="Trazado 874561" d="M257.393,710.689a1.912,1.912,0,0,0-2.443-1.262c-1.6.552-2.994,1.49-3.21,3.084-.2,1.452.53,6.09,3.773,6.686l-.265-2.383s1.986-.464,2.383-1.324a9.985,9.985,0,0,0-.24-4.8" transform="translate(-224.658 -633.089)" fill="#f9b384"/>
        <path id="Trazado_874562" data-name="Trazado 874562" d="M862.968,573.612c.171,1.015.316,2.033.455,3.052s.259,2.04.389,3.059l.333,3.066c.1,1.024.192,2.047.255,3.075l-.167.02c-.176-1.014-.32-2.033-.461-3.051l-.383-3.06c-.108-1.022-.232-2.043-.327-3.067s-.193-2.047-.261-3.074Z" transform="translate(-770.072 -511.963)" fill="#1f3c88"/>
        <path id="Trazado_874563" data-name="Trazado 874563" d="M588.608,572.007c0,1.14-.03,2.278-.064,3.417s-.087,2.276-.13,3.414l-.186,3.411c-.076,1.136-.154,2.273-.265,3.407l-.168-.008c0-1.14.026-2.279.058-3.417l.136-3.414c.065-1.137.114-2.275.193-3.411s.153-2.273.259-3.408Z" transform="translate(-524.622 -510.523)" fill="#1f3c88"/>
        <path id="Trazado_874564" data-name="Trazado 874564" d="M715.821,375.986a.676.676,0,0,1-.373.855c-.3.067-.611-.208-.7-.614a.676.676,0,0,1,.373-.855c.3-.067.611.208.7.614" transform="translate(-637.907 -335.02)" fill="#102048"/>
        <path id="Trazado_874565" data-name="Trazado 874565" d="M755.675,370.064c-.018.415-.278.741-.582.728s-.536-.36-.519-.775.278-.741.582-.728.536.36.518.775" transform="translate(-673.476 -329.599)" fill="#102048"/>
        <path id="Trazado_874566" data-name="Trazado 874566" d="M741.229,379.67a9.754,9.754,0,0,1,.219,1.03.806.806,0,0,0,.208.357,1.359,1.359,0,0,0,.4.2,1.123,1.123,0,0,1,.509.384.667.667,0,0,1,.052.7,1.324,1.324,0,0,1-.42.425c-.148.1-.289.205-.443.3l-.11-.127c.113-.139.237-.265.355-.4a1.252,1.252,0,0,0,.277-.362c.091-.2-.1-.416-.386-.529a1.5,1.5,0,0,1-.524-.3,1.048,1.048,0,0,1-.276-.568c-.071-.4.01-.739-.028-1.07Z" transform="translate(-661.419 -338.865)" fill="#e28b6d"/>
        <path id="Trazado_874567" data-name="Trazado 874567" d="M705.87,363.029a1.251,1.251,0,0,1,.439-.67,1.336,1.336,0,0,1,.779-.292,1.442,1.442,0,0,1,1.356.762l-.132.1a1.846,1.846,0,0,0-1.2-.439,1.4,1.4,0,0,0-1.086.606Z" transform="translate(-630.007 -323.152)" fill="#102048"/>
        <path id="Trazado_874568" data-name="Trazado 874568" d="M747.154,359a1.3,1.3,0,0,1,.338-.543,1.124,1.124,0,0,1,.61-.3,1.07,1.07,0,0,1,1.14.569l-.134.1a1.363,1.363,0,0,0-.942-.246,1.208,1.208,0,0,0-.449.164,2.982,2.982,0,0,0-.417.343Z" transform="translate(-666.854 -319.651)" fill="#102048"/>
        <path id="Trazado_874569" data-name="Trazado 874569" d="M725.027,418.409c.751,1.175,1.751,1.3,2.523.066Z" transform="translate(-647.105 -373.44)" fill="#fff"/>
        <g id="Grupo_1101622" data-name="Grupo 1101622" transform="translate(81.992 41.31)" opacity="0.4">
          <g id="Grupo_1101621" data-name="Grupo 1101621">
            <g id="Grupo_1101620" data-name="Grupo 1101620" clip-path="url(#clip-path-8)">
              <path id="Trazado_874570" data-name="Trazado 874570" d="M764.01,384.369a19.84,19.84,0,0,1-.214,2.8,1.3,1.3,0,0,1-.9-1.234,1.654,1.654,0,0,1,1.112-1.568" transform="translate(-762.898 -384.369)" fill="#fc8879"/>
            </g>
          </g>
        </g>
        <g id="Grupo_1101625" data-name="Grupo 1101625" transform="translate(74.703 42.259)" opacity="0.4">
          <g id="Grupo_1101624" data-name="Grupo 1101624">
            <g id="Grupo_1101623" data-name="Grupo 1101623" clip-path="url(#clip-path-9)">
              <path id="Trazado_874571" data-name="Trazado 874571" d="M697.851,394.589a1.386,1.386,0,1,1-1.386-1.386,1.386,1.386,0,0,1,1.386,1.386" transform="translate(-695.078 -393.203)" fill="#fc8879"/>
            </g>
          </g>
        </g>
        <path id="Trazado_874572" data-name="Trazado 874572" d="M654.538,386.7a6.91,6.91,0,0,0-.775-.51.675.675,0,0,0-.342-.089.766.766,0,0,0-.358.164l-.141-.091a.669.669,0,0,1,.408-.439.8.8,0,0,1,.622.072,1.61,1.61,0,0,1,.719.792Z" transform="translate(-582.749 -344.242)" fill="#e28b6d"/>
        <g id="Grupo_1101628" data-name="Grupo 1101628" transform="translate(30.567 82.402)" opacity="0.6">
          <g id="Grupo_1101627" data-name="Grupo 1101627">
            <g id="Grupo_1101626" data-name="Grupo 1101626" clip-path="url(#clip-path-10)">
              <path id="Trazado_874573" data-name="Trazado 874573" d="M286.815,766.709l-2,6.063-.412-4.738a4.135,4.135,0,0,0,2.407-1.325" transform="translate(-284.408 -766.709)" fill="#6f3428"/>
            </g>
          </g>
        </g>
        <line id="Línea_598" data-name="Línea 598" x2="277.915" transform="translate(0 167.023)" fill="none" stroke="#20454b" stroke-miterlimit="10" stroke-width="8"/>
      </g>
    </g>
  </g>
</svg>
