<svg id="_3" data-name="3" xmlns="http://www.w3.org/2000/svg" xmlns:xlink="http://www.w3.org/1999/xlink" width="125.711" height="132.125" viewBox="0 0 125.711 132.125">
  <defs>
    <clipPath id="clip-path">
      <rect id="Rectángulo_402214" data-name="Rectángulo 402214" width="125.711" height="132.125" fill="#20454b"/>
    </clipPath>
  </defs>
  <g id="Grupo_1101553" data-name="Grupo 1101553" clip-path="url(#clip-path)">
    <path id="Trazado_874448" data-name="Trazado 874448" d="M68.59,126.353c-1.245-1.411-2.532-2.7-3.9-4.026a2.2,2.2,0,0,1-.706-1.7V86.589a1.567,1.567,0,0,1,.332-.955c.457-.581,1.038-1.079,1.536-1.619,5.354-5.479,10.709-11,16.1-16.478a2.276,2.276,0,0,1,1.328-.581c4.234-.042,8.426-.042,12.66-.042a2.865,2.865,0,0,0,2.241-.955c2.49-2.615,5.022-5.23,7.554-7.845a2.208,2.208,0,0,1,1.411-.623,43.274,43.274,0,0,1,5.188,0,3.057,3.057,0,0,0,2.989-1.37,2.267,2.267,0,0,1,2.324-1.079c.872.083,1.785,0,2.656.083a2.056,2.056,0,0,1,1.079.54,2.563,2.563,0,0,0,2.822.789,2.4,2.4,0,0,0,1.494-2.407,2.3,2.3,0,0,0-1.743-2.117,2.254,2.254,0,0,0-2.656,1.162c-.166.249-.415.581-.664.581-1,.083-1.992.042-3.155.042,1.038-1.162,1.868-2.117,2.781-3.03a2.408,2.408,0,0,1,1.2-.623,2.246,2.246,0,0,0,1.868-2.283,2.354,2.354,0,0,0-1.7-2.241,2.094,2.094,0,0,0-2.573,1.245,11.167,11.167,0,0,0-.042,2.656c-1.7,1.743-3.528,3.694-5.4,5.6a1.771,1.771,0,0,1-1.121.415c-1.826.042-3.653.083-5.479-.042a3.318,3.318,0,0,0-2.822,1.2c-2.366,2.49-4.773,4.939-7.139,7.43a2.187,2.187,0,0,1-1.826.706c-2.49-.042-4.981,0-7.471,0H84.487c2.2-2.283,4.234-4.4,6.268-6.475.166.125.249.166.291.249a4.258,4.258,0,0,0,4.607,1.121,3.651,3.651,0,0,0,2.615-3.362,4.357,4.357,0,0,0-2.117-4.151,1.369,1.369,0,0,1-.5-1c-.042-2.989,0-5.935,0-8.924,0-.5.042-.955.083-1.411,2.7-.249,3.943-1.785,3.777-4.4a2.086,2.086,0,0,1,.5-1.162c2.7-2.822,5.4-5.6,8.135-8.384a2.019,2.019,0,0,1,1.162-.54,1.805,1.805,0,0,0,1.743-1.868,1.7,1.7,0,0,0-1.826-1.66,1.842,1.842,0,0,0-1.66,2.034,1.574,1.574,0,0,1-.291,1q-3.3,3.424-6.724,6.724c-.623.623-1.328,1.2-1.992,1.785-2.241-1.494-4.441-1.37-5.728.332A9.12,9.12,0,0,1,90.8,36.823a21.16,21.16,0,0,0-2.573,2.532c-2.781,2.989-2.241,1.536-2.324,5.686,0,.5.083,1.121-.166,1.411-.872,1.121-1.868,2.075-3.03,3.321V38.026a1.481,1.481,0,0,1,.457-.913c1.162-1.245,2.366-2.449,3.528-3.653,2.407-2.49,4.815-4.939,7.222-7.43a1.731,1.731,0,0,1,.249.083,3.614,3.614,0,0,0,4.234-.083,3.351,3.351,0,0,0,1.162-3.86.782.782,0,0,1,.125-.623c.747-.664,1.2-1.868,2.7-1.328.955.374,1.951-.5,2.117-1.536a2.094,2.094,0,0,0-1.453-2.366c-1.079-.249-2.324.332-2.366,1.328,0,1.328-1,1.826-1.743,2.49a.952.952,0,0,1-.83.083c-2.739-1.245-5.105.166-5.313,3.155a1.565,1.565,0,0,1-.291.872c-1.038,1.162-2.117,2.283-3.2,3.4-.041-.083-.125-.125-.125-.166,0-3.445,0-6.932.042-10.377a1.154,1.154,0,0,1,.623-.789,3.317,3.317,0,1,0-4.358-4.109,3.306,3.306,0,0,0,1.536,3.86,1.036,1.036,0,0,1,.664,1.038V28.563a1.3,1.3,0,0,1-.166.83c-1.577,1.494-3.2,2.947-4.69,4.358V18.476a3.807,3.807,0,0,1,.457-1.619,1.583,1.583,0,0,0-.332-2.116,1.529,1.529,0,0,0-2.034.208,1.441,1.441,0,0,0,.042,2.034,1.907,1.907,0,0,1,.415,1q.062,8.53,0,17.059a2.046,2.046,0,0,1-.457,1.2c-1.992,2.117-3.985,4.234-6.06,6.268-1,1.038-2.117,1.951-3.155,2.864,0-.913-.042-2.034.042-3.155a2.09,2.09,0,0,1,.457-1.079c.955-1.079,1.992-2.075,2.947-3.155a2.346,2.346,0,0,0,.54-1.37c.042-1.66,0-3.321.042-4.981a1.661,1.661,0,0,1,.374-1.121,5.35,5.35,0,0,0,1.951-5.354,4,4,0,0,1,0-.706,1.308,1.308,0,0,1,.706-1.411,2.232,2.232,0,0,0,1.079-2.7,2.4,2.4,0,0,0-2.283-1.7,2.406,2.406,0,0,0-1.328,4.4c.166.125.415.332.415.457-.083,1.909.623,3.985-1.245,5.562a3.311,3.311,0,0,0-1.121,2.988c.083,1.37.042,2.739.042,4.109a1.194,1.194,0,0,1-.125.664c-.747.872-1.536,1.7-2.449,2.739,0-6.06.042-11.788-.042-17.516a3.549,3.549,0,0,1,1.162-2.739c3.072-3.072,6.1-6.226,9.09-9.339a2.714,2.714,0,0,1,1.7-.955,2.506,2.506,0,0,0,2.2-2.075,2.58,2.58,0,0,0-3.9-2.74,2.771,2.771,0,0,0-1.121,3.113,1.308,1.308,0,0,1-.125.914c-3.321,3.4-6.641,6.765-10,10.086a3.65,3.65,0,0,0-1.2,2.74q.062,12.95.042,25.9a2.009,2.009,0,0,1-.415,1.2c-1.536,1.66-3.072,3.279-4.649,4.939a6.824,6.824,0,0,1-.664.54v-5.4c0-9.007,0-17.973.042-26.98a2.167,2.167,0,0,1,.5-1.287c2.241-2.448,4.483-4.939,6.89-7.264,1.743-1.66,2.781-3.362,2.283-5.811,0-.083-.042-.208,0-.29.166-.291.291-.706.54-.872a2.67,2.67,0,0,0,1.287-3.113A2.716,2.716,0,0,0,72.7.67,2.612,2.612,0,0,0,70.168,2.7a2.642,2.642,0,0,0,1.287,2.989,1.572,1.572,0,0,1,.54.872,5.477,5.477,0,0,1-1.909,5.271c-2.2,1.992-4.109,4.275-6.268,6.6V7.892A1.45,1.45,0,0,1,64.564,6.4a3.416,3.416,0,0,0,1.411-4.026A3.612,3.612,0,0,0,62.281.006a3.357,3.357,0,0,0-3.155,2.615,3.441,3.441,0,0,0,1.66,3.86,1.125,1.125,0,0,1,.706,1.245V67.745c-1.66-1.577-3.321-3.238-5.022-4.815a2.369,2.369,0,0,1-.789-1.909V16.692a2.086,2.086,0,0,1,.5-1.162,3.421,3.421,0,0,0,.581-3.57,3.122,3.122,0,0,0-2.822-1.951,4.076,4.076,0,0,0-.747-.041c0-1.038.042-1.992,0-2.989a1.269,1.269,0,0,1,.789-1.453A2.4,2.4,0,0,0,55.1,2.662,2.755,2.755,0,0,0,52.569.67,2.557,2.557,0,0,0,50,2.413c-.54,1.494-.042,2.532,1.743,3.611,0,1.162.042,2.324-.042,3.487a2.6,2.6,0,0,1-.54,1.453,3.423,3.423,0,0,0,1.121,5.188,10.919,10.919,0,0,0,1.038.415V26.612c-1.577-1.619-2.947-2.989-4.275-4.441a2.693,2.693,0,0,1-.623-1.453c-.083-2.366,0-4.773-.042-7.139a2,2,0,0,0-.54-1.245c-1.411-1.411-2.864-2.781-4.275-4.151a1.682,1.682,0,0,1-.664-1.66,2.4,2.4,0,0,0-2.158-2.7,2.516,2.516,0,0,0-2.905,1.868c-.457,1.618.249,2.7,2.117,3.321V18.85c-1.038-1.121-1.909-1.993-2.781-2.905-.913-.913-1.785-1.826-2.739-2.656a2.6,2.6,0,0,1-1.121-2.034,2.189,2.189,0,0,0-2.7-1.868,2.34,2.34,0,0,0-1.785,3.072,2.245,2.245,0,0,0,2.947,1.37,1.047,1.047,0,0,1,1.411.291c4.856,4.814,9.671,9.671,14.652,14.32,1.868,1.743,2.864,3.528,2.407,6.019a4.793,4.793,0,0,0,2.449,5.271,1.6,1.6,0,0,1,.706,1.494c0,5.686.042,11.373.042,17.059v1.743c-.249-.208-.374-.332-.5-.415-1.826-1.868-3.653-3.736-5.52-5.562a2.579,2.579,0,0,1-.83-2.034c.042-2.989.042-6.019,0-9.007a7.319,7.319,0,0,0-.166-2.532,4.121,4.121,0,0,1,.083-2.822,3.65,3.65,0,1,0-7.056-1.868,3.6,3.6,0,0,0,2.739,4.483c.664.125,1.328.083,2.158.166V51.391c-.955-1-1.743-1.951-2.656-2.781a4.507,4.507,0,0,0-1.328-.706,5.508,5.508,0,0,1-1.577-.706c-1.909-1.826-3.736-3.736-5.562-5.645a2.413,2.413,0,0,1-.623-1.411c-.042-2.781,0-5.562,0-8.343a.823.823,0,0,1,.664-.913,2.564,2.564,0,0,0,1.743-2.822,2.685,2.685,0,0,0-1.951-2.407A3.049,3.049,0,0,0,29.615,26.9c-.664,1.162-.623,2.7.457,3.362,1.245.789,1.121,1.826,1.121,2.905,0,1.536,0,3.072-.042,4.607a5.357,5.357,0,0,1-.125,1c-2.034-2.117-3.9-4.109-5.811-6.1-.083-.083-.208-.166-.249-.291a5.574,5.574,0,0,1-.291-1.121c-.042-2.573,0-5.147-.042-7.762a1.316,1.316,0,0,1,.83-1.411A3.207,3.207,0,0,0,27,18.31a3.267,3.267,0,0,0-6.351.291,3.262,3.262,0,0,0,1.868,3.528.958.958,0,0,1,.664,1.038c-.042,2.158,0,4.317,0,6.475a7.6,7.6,0,0,1-.083.872c-1.743-1.743-3.445-3.362-5.105-5.064a1.463,1.463,0,0,1-.332-1.079,1.693,1.693,0,0,0-1.619-1.951A1.732,1.732,0,0,0,14.258,24a1.771,1.771,0,0,0,1.66,1.909,2.164,2.164,0,0,1,1.245.581c2.739,2.7,5.437,5.479,8.135,8.218.083.083.166.249.374.54H20.816c-1.7,0-1.992-.332-1.66-1.992A3.348,3.348,0,0,0,17.5,29.6a3.276,3.276,0,0,0-3.9.581,3.46,3.46,0,0,0-.5,4.068,3.211,3.211,0,0,0,3.736,1.411,1.483,1.483,0,0,1,1.577.332,2.722,2.722,0,0,0,1.577.581c1.785.042,3.611,0,5.4-.042a2.7,2.7,0,0,1,2.075.872c6.019,5.977,12.12,11.913,18.139,17.89q7.72,7.6,15.316,15.316a2.568,2.568,0,0,1,.623,1.411c.083,2.822.042,5.686.042,8.55,0,.332-.042.623-.042,1.121-.332-.332-.581-.5-.747-.706L35.053,55a2.537,2.537,0,0,1-.54-.913,4.232,4.232,0,0,0-3.4-2.905,1.537,1.537,0,0,1-.747-.332c-2.532-2.573-5.064-5.188-7.554-7.8A2.507,2.507,0,0,0,20.9,42.26c-1.536.042-3.072,0-4.607,0a3.87,3.87,0,0,1-.083-.581,3.241,3.241,0,0,0-2.366-2.947,3.315,3.315,0,0,0-3.694,1.079c-.125.166-.5.374-.581.291A2.033,2.033,0,0,1,8.82,39.4c-.125-.208-.042-.5-.083-.789a2.25,2.25,0,0,0-1.951-1.785,2.371,2.371,0,0,0-2.449,1.411,2.419,2.419,0,0,0,.623,2.781,2.255,2.255,0,0,0,2.656.249,1.092,1.092,0,0,1,1.743,1,3.159,3.159,0,0,0,2.117,3.113,3.129,3.129,0,0,0,3.777-.706,3.012,3.012,0,0,1,2.366-.955,5.215,5.215,0,0,1,5.188,2.034c1.66,2.075,3.694,3.86,5.562,5.769-2.615,1.826-2.7,4.939-.955,6.6a4.351,4.351,0,0,0,3.2,1.287,3.8,3.8,0,0,0,3.321-1.909c2.366,2.241,4.732,4.524,7.1,6.807-3.819,0-7.513,0-11.248-.042a1.847,1.847,0,0,1-1.121-.581c-2.573-2.573-5.105-5.147-7.6-7.762a2.865,2.865,0,0,0-2.241-.955c-1.909.042-3.777.042-5.686,0a1.634,1.634,0,0,1-1.038-.332Q9.36,51.952,6.745,49.15a1.2,1.2,0,0,1-.208-1A2.32,2.32,0,0,0,5,45.124a2.237,2.237,0,0,0-2.822,1.7,2.31,2.31,0,0,0,2.075,2.781c.208.042.5,0,.664.166,1.038,1.079,2.034,2.2,3.03,3.279-1.494.042-2.947.789-4.068-.872a2.08,2.08,0,0,0-3.2-.083,2.668,2.668,0,0,0,0,3.57c.872.83,2.615.913,3.279-.083a2.252,2.252,0,0,1,2.241-.913,7.56,7.56,0,0,0,1.37-.042,2.453,2.453,0,0,1,2.739,1.162,2.964,2.964,0,0,0,2.947,1.328c1.577-.125,3.155,0,4.69-.042a2.387,2.387,0,0,1,2.034.872c2.407,2.532,4.856,5.022,7.305,7.554A3.027,3.027,0,0,0,29.7,66.542c4.234-.042,8.509-.042,12.743,0A1.947,1.947,0,0,1,43.728,67q8.716,8.779,17.35,17.557a2.022,2.022,0,0,1,.54,1.37c.083,1.37.042,2.739.042,4.109,0,10.086,0,20.214-.042,30.3a2.531,2.531,0,0,1-.623,1.494c-1.287,1.411-2.656,2.7-3.985,4.068a2.739,2.739,0,0,0-.664,1.162,20.141,20.141,0,0,0-.083,2.739,1,1,0,0,0,1.162,1.038,1.144,1.144,0,0,0,1.2-1.245c0-.664-.208-1.536.125-2.034a29.431,29.431,0,0,1,2.905-3.279V130.3a6.131,6.131,0,0,0,.042.872A1.15,1.15,0,0,0,63.983,131v-6.434l.249-.125a9.983,9.983,0,0,0,.872,1c1.245,1.121,2.283,2.283,1.951,4.192-.125.706.415,1.162,1.121,1.2a1.106,1.106,0,0,0,1.2-1.245,9.369,9.369,0,0,0-.042-1.868,7.97,7.97,0,0,0-.747-1.37M53.523,38.815c-.955-.83-1.826-1.494-1.66-2.947a25.956,25.956,0,0,0,0-4.4,1.849,1.849,0,0,0-.5-1.2c-3.072-3.072-6.185-6.1-9.256-9.173a1.415,1.415,0,0,1-.457-.789c-.042-3.694,0-7.389,0-11.041a1.8,1.8,0,0,1,.291-.166A40.956,40.956,0,0,0,45.056,12a5,5,0,0,1,2.075,5.063,25.267,25.267,0,0,0-.042,4.691,2.945,2.945,0,0,0,.664,1.619c1.7,1.7,3.487,3.362,5.188,5.022a1.539,1.539,0,0,1,.5.955c.083,3.113.083,6.226.083,9.464M66.141,54.961C71.205,49.98,76.1,44.792,81.084,39.687c.041-.083.166-.083.374-.249v1.038c0,3.279,0,6.6-.083,9.879a2.368,2.368,0,0,1-.581,1.453C75.9,56.87,71,61.851,66.1,66.874c-.664.706-1.328,1.411-2.117,2.283,0-3.03.125-5.894-.042-8.675a6.424,6.424,0,0,1,2.2-5.52M63.983,73.349a2.268,2.268,0,0,1,.747-1.785Q76.186,59.921,87.559,48.237a2.678,2.678,0,0,0,.623-1.619c.125-1.121.042-2.2.083-3.321a1.421,1.421,0,0,1,.166-.747c1.37-1.245,2.739-2.49,4.068-3.694.332.332.872.913,1.37,1.494a.766.766,0,0,1,.208.5c0,3.487-.042,6.973-.083,10.5a1.632,1.632,0,0,1-.083.249c-.291.083-.664.125-1,.249a3.459,3.459,0,0,0-2.656,2.739,4.168,4.168,0,0,1-1.494,2.573C81,65.13,73.281,73.1,65.519,81.069c-.457.5-.913,1-1.494,1.66-.042-.374-.083-.664-.083-.913.042-2.822.083-5.645.042-8.467" transform="translate(0 0)" fill="#20454b"/>
    <path id="Trazado_874449" data-name="Trazado 874449" d="M215.518,151.085a2.064,2.064,0,0,0-2.324,1.37.979.979,0,0,1-1.162.747c-1-.042-1.951.083-2.947.042a3.673,3.673,0,0,1-1.245-.415,7.229,7.229,0,0,0-1.494-.54c-2.532-.041-5.022-.041-7.554,0a2.36,2.36,0,0,0-1.536.665c-1.079,1.079-2.075,2.241-3.155,3.362-.332.332-.789.581-1.121.913a5.538,5.538,0,0,0-1.494,1.453,1.366,1.366,0,0,1-1.66.913,2.493,2.493,0,0,0-2.449,1.038c-1.162,1.287-2.407,2.49-3.611,3.736-.249.249-.623.623-.955.623-1.245.083-2.49.041-4.026.041,1.37-1.286,2.532-2.366,3.694-3.445a1.457,1.457,0,0,0,.249-2.034,1.626,1.626,0,0,0-1.992-.581,1.383,1.383,0,0,0-.789,1.868,1.255,1.255,0,0,1-.332,1.453c-2.864,3.072-5.728,6.185-8.592,9.256a1.338,1.338,0,0,1-.581.332,9.538,9.538,0,0,0-1.7.955c-3.487,3.445-6.89,6.973-10.335,10.46a2.887,2.887,0,0,0-.913,2.241c0,6.558,0,13.075-.042,19.633a3,3,0,0,0,.913,2.324c1.411,1.37,2.822,2.74,4.151,4.151a3.026,3.026,0,0,0,2.407,1c4.4-.042,8.841,0,13.241,0,.83,0,1.619.041,2.449,0a1.04,1.04,0,0,0,1.038-1.412c-.208-.83-.872-.871-1.536-.871-4.856,0-9.671.041-14.527,0a2.671,2.671,0,0,1-1.619-.664c-1.245-1.163-2.407-2.366-3.57-3.653a2.111,2.111,0,0,1-.54-1.286q-.062-9.464,0-18.927a2,2,0,0,1,.54-1.245c3.279-3.4,6.558-6.766,9.879-10.086a1.979,1.979,0,0,1,1.287-.5c6.558-.042,13.158-.083,19.716,0a3.489,3.489,0,0,0,2.739-1.162c1.7-1.826,3.445-3.57,5.188-5.354a1.648,1.648,0,0,1,.83-.457c1.287-.042,2.615,0,3.9,0q1.619,4.483,5.852,2.117a13.788,13.788,0,0,0,1.038,1.121,1.1,1.1,0,0,1,.374,1.494,2.048,2.048,0,0,0,1.038,2.656,2.261,2.261,0,0,0,2.573-.332,2.179,2.179,0,0,0,.664-2.407,2.31,2.31,0,0,0-2.075-1.66,3,3,0,0,1-2.656-3.113,3.536,3.536,0,0,0-2.158-3.694,3.582,3.582,0,0,0-4.151,1.328,1.738,1.738,0,0,1-1.079.581c-1.287.083-2.615-.042-3.9.042a2.712,2.712,0,0,0-1.619.664q-2.739,2.677-5.354,5.479a1.992,1.992,0,0,1-1.619.664H172.891a4.917,4.917,0,0,1,.332-.5c1.494-1.577,3.03-3.2,4.566-4.732a2.059,2.059,0,0,1,1.162-.415c1.37-.042,2.739.042,4.109-.042a2.391,2.391,0,0,0,1.37-.581,39.7,39.7,0,0,0,3.653-3.819,2.7,2.7,0,0,1,2.947-1.038,3.29,3.29,0,0,0,3.528,2.7,3.007,3.007,0,0,0,2.739-2.2c.54-1.909-.332-3.238-1.951-4.276.955-1,1.826-1.95,2.781-2.864a2.085,2.085,0,0,1,1.121-.457c2.158-.041,4.317-.083,6.475,0a2.369,2.369,0,0,1,1.453.582c1.494,1.453,2.905,3.03,4.358,4.483.5.5.872.913.581,1.743a1.62,1.62,0,0,0,1.2,1.951,1.729,1.729,0,0,0,2.117-1.121c.249-.913-.166-2.075-.955-2.2a3.269,3.269,0,0,1-1.951-1.328l-2.49-2.615a5.65,5.65,0,0,1-.5-.747c.747,0,1.287.042,1.868,0a2.408,2.408,0,0,1,2.407.83,2.24,2.24,0,0,0,2.822.249,2.571,2.571,0,0,0,1.121-2.532,2.666,2.666,0,0,0-2.241-1.951" transform="translate(-92.097 -88.362)" fill="#20454b"/>
    <path id="Trazado_874450" data-name="Trazado 874450" d="M62.784,215.241c.042-6.807,0-13.614,0-20.38a2.235,2.235,0,0,0-.747-1.7c-3.445-3.445-6.849-6.932-10.252-10.377-.623-.623-1.121-1.411-2.158-1.328-.166,0-.374-.249-.5-.415-2.739-3.03-5.52-6.06-8.26-9.049-.415-.457-.747-.789-.415-1.494a1.281,1.281,0,0,0-.664-1.743,1.492,1.492,0,0,0-1.951.374,1.452,1.452,0,0,0-.042,1.909c.249.291.581.54.83.789.872.872,1.743,1.743,2.7,2.739-1.079,0-1.909-.042-2.781,0a2.91,2.91,0,0,1-2.366-1.079c-1.785-1.951-3.653-3.86-5.52-5.728a1.118,1.118,0,0,0-1.121-.166c-.457.291-.332.789.042,1.162a4.973,4.973,0,0,1,.457.5c1.951,2.034,3.943,4.026,5.852,6.06a1.655,1.655,0,0,0,1.7.664c3.321-.623,5.769.664,7.762,3.279a25,25,0,0,0,2.034,2.158l-.125.249H45.808c-5.479,0-10.916-.042-16.4,0a2.286,2.286,0,0,1-1.743-.706c-1.785-1.826-3.528-3.653-5.4-5.437a2.574,2.574,0,0,0-1.619-.664c-1.37-.083-2.739.042-4.109-.042a1.261,1.261,0,0,1-.955-.54,3.59,3.59,0,0,0-4.234-1.411,3.343,3.343,0,0,0-2.2,3.736,2.992,2.992,0,0,1-2.49,3.155,2.288,2.288,0,1,0,.747,4.483,2.182,2.182,0,0,0,1.411-3.03c-.415-1.079.623-1.287,1-1.868.291-.54.706-.208,1.079-.042,1.7.789,3.819.415,4.483-1.121.581-1.453,1.536-1.494,2.7-1.411a8.378,8.378,0,0,1,1.453.042,3.087,3.087,0,0,1,1.411.581c1.868,1.785,3.653,3.653,5.437,5.479a2.624,2.624,0,0,0,2.075.913c6.475-.042,12.95-.042,19.425-.125a2.83,2.83,0,0,1,2.241.913c3.238,3.279,6.517,6.517,9.713,9.8a1.81,1.81,0,0,1,.457,1.121c.042,6.392.042,12.826,0,19.218a1.638,1.638,0,0,1-.415,1.038q-1.806,1.992-3.736,3.86a1.979,1.979,0,0,1-1.287.5c-4.607.042-9.215,0-13.822,0a5.535,5.535,0,0,0-1.66.042,1.737,1.737,0,0,0-1,.955.932.932,0,0,0,.83,1.2,5.022,5.022,0,0,0,.789.042c5.188,0,10.377-.042,15.607-.042a2.589,2.589,0,0,0,2.075-.872c1.411-1.536,2.905-2.988,4.317-4.566a2.409,2.409,0,0,0,.789-1.619" transform="translate(-2.62 -97.979)" fill="#20454b"/>
    <path id="Trazado_874451" data-name="Trazado 874451" d="M219.661,211.581a3.192,3.192,0,0,0-4.068,0,3.66,3.66,0,0,1-2.989.913c-.83-.042-1.66.042-2.449-.042a2.644,2.644,0,0,0-2.7,1.162,2.534,2.534,0,0,1-2.283,1c-6.89-.042-13.78,0-20.67-.042a2.6,2.6,0,0,0-1.992.789c-1.743,1.785-3.57,3.57-5.313,5.354a1.226,1.226,0,0,0,.042,1.951,1.377,1.377,0,0,0,1.909-.332q2.3-2.553,4.732-5.105a1.7,1.7,0,0,1,1.079-.457c1.826-.042,3.653-.083,5.479,0a2,2,0,0,1,1.245.54c2.864,2.947,5.645,5.894,8.467,8.841a2.3,2.3,0,0,0,1.494.623c1.536.083,3.072.042,4.607,0a1.4,1.4,0,0,1,1.536.83,3.458,3.458,0,0,0,4.192,1.619,3.266,3.266,0,0,0,2.366-3.445,3.6,3.6,0,0,0-2.781-3.362,3.425,3.425,0,0,0-3.943,1.992.854.854,0,0,1-.913.623c-1.37-.042-2.739.042-4.109-.042a2.167,2.167,0,0,1-1.328-.581c-2.075-2.075-4.068-4.234-6.1-6.392-.374-.374-.706-.789-1.162-1.287,4.068,0,7.928-.042,11.788.042a3.384,3.384,0,0,0,3.238-1.494,1.493,1.493,0,0,1,1-.664c1.37-.083,2.739-.042,4.151-.042.083.249.125.5.208.747a3.424,3.424,0,0,0,3.279,2.49,3.2,3.2,0,0,0,3.321-2.241,3.742,3.742,0,0,0-1.328-3.985" transform="translate(-103.379 -123.332)" fill="#20454b"/>
    <path id="Trazado_874452" data-name="Trazado 874452" d="M48.294,217.22a1.485,1.485,0,0,1,.913-.457c2.034-.042,4.068-.042,6.06,0a1.279,1.279,0,0,1,.83.374c1.66,1.7,3.279,3.445,4.939,5.188a1.317,1.317,0,0,0,1.868.291,1.227,1.227,0,0,0-.042-1.951c-1.743-1.743-3.528-3.487-5.271-5.271a2.718,2.718,0,0,0-2.241-.872c-7.015.042-14.029.042-21.086.042a1.687,1.687,0,0,1-1.121-.415c-1.2-1.619-2.781-1.868-4.607-1.619-.415.042-.83,0-1.287.042a3,3,0,0,1-2.615-.872,3.236,3.236,0,0,0-3.985-.208,3.752,3.752,0,0,0-1.453,3.9,3.266,3.266,0,0,0,3.155,2.449,3.318,3.318,0,0,0,3.4-2.283c.083-.291.208-.623.291-1,.955,0,1.868.083,2.739,0a2.459,2.459,0,0,1,2.573,1.162,2.579,2.579,0,0,0,2.532,1.121c3.985-.042,7.969,0,12.037,0-1.743,1.868-3.445,3.653-5.147,5.437-.955.955-1.785,2.283-2.947,2.739-1.2.457-2.7.042-4.068.083a.942.942,0,0,1-1-.706,3.5,3.5,0,1,0-4.026,4.981,3.578,3.578,0,0,0,4.068-1.785,1.231,1.231,0,0,1,.913-.581c1.577-.083,3.2-.042,4.815-.125a1.864,1.864,0,0,0,1.162-.5c2.905-3.113,5.728-6.143,8.592-9.173" transform="translate(-11.166 -123.367)" fill="#20454b"/>
    <path id="Trazado_874453" data-name="Trazado 874453" d="M242.495,73.343c-.747,1.536-.415,2.822,1.287,4.524-.332.415-.623.83-.913,1.2-3.279,3.9-6.558,7.8-9.879,11.663-.581.664-.581,1.121.374,1.577a46.213,46.213,0,0,0,3.321-3.653c1.494-2.034,3.279-3.113,5.894-2.615a4.453,4.453,0,0,0,1.287,0,1.563,1.563,0,0,1,1.494.664,3.35,3.35,0,0,0,1.37,1.038,3.442,3.442,0,0,0,4.856-3.155c.042-1,.706-1.37,1.619-1a3.347,3.347,0,0,0,1.7.249,2.229,2.229,0,0,0,1.826-2.532,2.4,2.4,0,0,0-2.407-2.158,2.05,2.05,0,0,0-2.158,2.075c0,.913-.581,1.038-1.2,1.287a3.234,3.234,0,0,0-3.736-1.536,3.459,3.459,0,0,0-2.615,3.57h-4.4c.042-.166,0-.208.042-.249,1.7-2.034,3.4-4.068,5.105-6.06a1.382,1.382,0,0,1,.623-.208,3.035,3.035,0,0,0,2.739-3.072,3.49,3.49,0,0,0-2.407-3.321,3.173,3.173,0,0,0-3.819,1.7" transform="translate(-136.05 -41.834)" fill="#20454b"/>
    <path id="Trazado_874454" data-name="Trazado 874454" d="M4.2,155.1a1.265,1.265,0,0,1,.83-.5c1-.083,1.992-.042,3.321-.042-1.37,1.453-2.49,2.7-3.653,3.9a2.727,2.727,0,0,1-1.2.706,1.764,1.764,0,0,0-1.328,2.075,1.724,1.724,0,0,0,2.075,1.328A1.615,1.615,0,0,0,5.526,160.5a1.053,1.053,0,0,1,.332-1.245c1.577-1.619,3.113-3.279,4.69-4.856a2.314,2.314,0,0,1,1.245-.581c2.283-.042,4.566-.042,6.849-.042a1.116,1.116,0,0,1,.747.166c1.038,1.038,2.034,2.075,3.072,3.155a4.7,4.7,0,0,0-.581.249,3.474,3.474,0,0,0-1.785,3.694,3.268,3.268,0,0,0,3.113,2.49,3.046,3.046,0,0,0,3.072-2.241,3.821,3.821,0,0,0-1.453-4.026,11.258,11.258,0,0,1-1.66-1.494c-.872-.872-1.7-1.785-2.532-2.739a2.316,2.316,0,0,0-1.909-.789q-3.424.062-6.849,0a2.619,2.619,0,0,0-2.034.706,1.756,1.756,0,0,1-.955.332c-.955.042-1.909-.042-2.822-.042-.747,0-1.287-.042-1.66-.913A2.17,2.17,0,0,0,1.749,151.2a2.389,2.389,0,0,0-1.7,2.283,2.447,2.447,0,0,0,1.494,2.324A2.311,2.311,0,0,0,4.2,155.1" transform="translate(-0.026 -88.396)" fill="#20454b"/>
    <path id="Trazado_874455" data-name="Trazado 874455" d="M92.4,280.992c-.083-.955-.706-1.079-1.536-1.079-3.487.042-6.973,0-10.5,0H69.692c-.789,0-1.37.249-1.453,1.079-.083.747.5,1.245,1.411,1.245H90.9c1.038,0,1.577-.457,1.494-1.245" transform="translate(-39.91 -163.73)" fill="#20454b"/>
    <path id="Trazado_874456" data-name="Trazado 874456" d="M198.567,279.913h-10.5v.042h-.5c-3.445,0-6.849-.042-10.294.042a1.858,1.858,0,0,0-1.245.664,1.118,1.118,0,0,0,.166,1.121,2.029,2.029,0,0,0,1.287.457c3.321.042,6.641,0,10,0h11.082c.789,0,1.37-.208,1.494-1.079.083-.747-.54-1.245-1.494-1.245" transform="translate(-102.914 -163.73)" fill="#20454b"/>
    <path id="Trazado_874457" data-name="Trazado 874457" d="M193.129,239.528a3.259,3.259,0,1,0,0-6.517,3.182,3.182,0,0,0-3.279,3.362,3.235,3.235,0,0,0,3.279,3.155" transform="translate(-111.049 -136.295)" fill="#20454b"/>
    <path id="Trazado_874458" data-name="Trazado 874458" d="M96.149,236.249a3.108,3.108,0,0,0,3.155,3.279,3.186,3.186,0,0,0,3.362-3.2,3.138,3.138,0,0,0-3.238-3.321,3.1,3.1,0,0,0-3.279,3.238" transform="translate(-56.24 -136.295)" fill="#20454b"/>
    <path id="Trazado_874459" data-name="Trazado 874459" d="M72.6,51.2c.291.166.374.664.581.955.125.208.374.581.457.54.291-.083.706-.332.706-.54a1.035,1.035,0,0,1,.706-1,2.3,2.3,0,0,0,1.287-2.656,2.757,2.757,0,0,0-2.49-1.992,2.58,2.58,0,0,0-2.532,1.909A2.419,2.419,0,0,0,72.6,51.2" transform="translate(-41.656 -27.207)" fill="#20454b"/>
    <path id="Trazado_874460" data-name="Trazado 874460" d="M121.39,304.413a2.093,2.093,0,0,0-2.241,2.158,2.153,2.153,0,0,0,2.117,2.117,2.181,2.181,0,0,0,2.241-2.117,2.084,2.084,0,0,0-2.117-2.158" transform="translate(-69.693 -178.06)" fill="#20454b"/>
    <path id="Trazado_874461" data-name="Trazado 874461" d="M174.625,304.413a2.052,2.052,0,0,0-2.075,2.241,2.138,2.138,0,0,0,4.275-.083,2.128,2.128,0,0,0-2.2-2.158" transform="translate(-100.93 -178.06)" fill="#20454b"/>
    <path id="Trazado_874462" data-name="Trazado 874462" d="M57.62,279.513a1.448,1.448,0,0,0-1.37,1.411,1.41,1.41,0,0,0,1.37,1.37,1.321,1.321,0,0,0,1.37-1.328,1.457,1.457,0,0,0-1.37-1.453" transform="translate(-32.902 -163.496)" fill="#20454b"/>
    <path id="Trazado_874463" data-name="Trazado 874463" d="M240.392,279.61a1.331,1.331,0,0,0-1.245,1.453,1.371,1.371,0,0,0,2.739-.083,1.411,1.411,0,0,0-1.494-1.37" transform="translate(-139.883 -163.551)" fill="#20454b"/>
    <path id="Trazado_874464" data-name="Trazado 874464" d="M77.054,293.811a1.4,1.4,0,0,0-1.2,1.411,1.263,1.263,0,0,0,1.328,1.328,1.242,1.242,0,0,0,1.287-1.287,1.524,1.524,0,0,0-1.411-1.453" transform="translate(-44.367 -171.858)" fill="#20454b"/>
    <path id="Trazado_874465" data-name="Trazado 874465" d="M221.426,294.013c-.623,0-1.038.415-1.079,1.2a1.388,1.388,0,0,0,1.287,1.536,1.321,1.321,0,0,0,1.328-1.37,1.379,1.379,0,0,0-1.536-1.37" transform="translate(-128.886 -171.977)" fill="#20454b"/>
  </g>
</svg>
