<svg xmlns="http://www.w3.org/2000/svg" xmlns:xlink="http://www.w3.org/1999/xlink" width="103.466" height="96.042" viewBox="0 0 103.466 96.042">
  <defs>
    <clipPath id="clip-path">
      <rect id="Rectángulo_402240" data-name="Rectángulo 402240" width="103.466" height="96.042" transform="translate(0 0)" fill="none"/>
    </clipPath>
  </defs>
  <g id="_6" data-name="6" transform="translate(0 0.004)">
    <g id="Grupo_1101579" data-name="Grupo 1101579" transform="translate(0 -0.004)" clip-path="url(#clip-path)">
      <path id="Trazado_874483" data-name="Trazado 874483" d="M68.988,602.321,11.5,607.754A12.7,12.7,0,0,0,.033,621.3l2.058,28.935a12.7,12.7,0,0,0,12.666,11.8h11.3l1.608,14.94a1.234,1.234,0,0,0,2.179.653L42.706,662.03H68.059a12.7,12.7,0,0,0,12.674-11.915l2.125-34.369a12.7,12.7,0,0,0-13.869-13.426" transform="translate(0 -582.031)" fill="#f8953e"/>
      <path id="Trazado_874484" data-name="Trazado 874484" d="M1091.772,952.526l-1.31-25.459c0-3.713,9.619-3.713,9.619,0l-1.03,25.459c0,2.471-7.279,2.471-7.279,0m3.5,3.77a4.659,4.659,0,1,0,4.659,4.659,4.659,4.659,0,0,0-4.659-4.659" transform="translate(-1053.83 -893.233)" fill="#fff"/>
      <path id="Trazado_874485" data-name="Trazado 874485" d="M2295.35,17.232a2.016,2.016,0,0,1-2.016-2.016V2.012a2.016,2.016,0,0,1,4.031,0v13.2a2.016,2.016,0,0,1-2.016,2.016m7.924,2.1L2312.611,10a2.016,2.016,0,0,0-2.85-2.85l-9.337,9.337a2.016,2.016,0,1,0,2.85,2.85m16.487,5.073a2.016,2.016,0,0,0-2.016-2.016h-13.2a2.016,2.016,0,1,0,0,4.031h13.2a2.016,2.016,0,0,0,2.016-2.016" transform="translate(-2216.295 0.004)" fill="#93acb1"/>
    </g>
  </g>
</svg>
