<svg xmlns="http://www.w3.org/2000/svg" width="60" height="60" viewBox="0 0 60 60">
  <g id="b" transform="translate(-836.051 -1210)">
    <circle id="Elipse_11608" data-name="Elipse 11608" cx="30" cy="30" r="30" transform="translate(836.051 1210)" fill="#f8953e"/>
    <path id="Trazado_875881" data-name="Trazado 875881" d="M1.4,0V-15.641H6.875a7.194,7.194,0,0,1,4.318,1.09,3.728,3.728,0,0,1,1.472,3.2,3.534,3.534,0,0,1-.591,2.025,3.413,3.413,0,0,1-1.644,1.284,3.3,3.3,0,0,1,1.9,1.214A3.589,3.589,0,0,1,13.02-4.6,4.128,4.128,0,0,1,11.58-1.182,6.48,6.48,0,0,1,7.477,0ZM4.619-6.811v4.222H7.38a2.664,2.664,0,0,0,1.778-.542A1.86,1.86,0,0,0,9.8-4.63,1.964,1.964,0,0,0,7.573-6.811Zm0-2.277H7q2.438-.043,2.438-1.944a1.8,1.8,0,0,0-.618-1.531,3.249,3.249,0,0,0-1.95-.467H4.619Z" transform="translate(859.051 1248)" fill="#12263f"/>
  </g>
</svg>
