<svg xmlns="http://www.w3.org/2000/svg" width="60" height="60" viewBox="0 0 60 60">
  <g id="d" transform="translate(-205.051 -3454)">
    <path id="Trazado_875909" data-name="Trazado 875909" d="M30,0A30,30,0,1,1,0,30,30,30,0,0,1,30,0Z" transform="translate(205.051 3454)" fill="#f8953e"/>
    <path id="Trazado_875908" data-name="Trazado 875908" d="M1.4,0V-15.641H6.209a7.308,7.308,0,0,1,3.69.929,6.479,6.479,0,0,1,2.541,2.643,8.151,8.151,0,0,1,.913,3.894v.72a8.174,8.174,0,0,1-.9,3.878A6.424,6.424,0,0,1,9.926-.945,7.363,7.363,0,0,1,6.241,0ZM4.619-13.03V-2.589H6.177a3.5,3.5,0,0,0,2.89-1.235,5.582,5.582,0,0,0,1.021-3.534v-.827A5.671,5.671,0,0,0,9.1-11.8a3.488,3.488,0,0,0-2.89-1.23Z" transform="translate(228.051 3492)" fill="#12263f"/>
  </g>
</svg>
